SplineFontDB: 3.2
FontName: MaterialDesignSmartHome
FullName: Material Design Smart Home
FamilyName: Material Design Smart Home
Weight: Book
Version: 1.0
ItalicAngle: 0
UnderlinePosition: 5
UnderlineWidth: 0
Ascent: 448
Descent: 64
InvalidEm: 0
sfntRevision: 0x00010000
LayerCount: 2
Layer: 0 1 "Back" 1
Layer: 1 1 "Fore" 0
XUID: [1021 415 -1349736084 2407252]
StyleMap: 0x0040
FSType: 0
OS2Version: 4
OS2_WeightWidthSlopeOnly: 0
OS2_UseTypoMetrics: 1
CreationTime: -2082844800
ModificationTime: 1758738393
PfmFamily: 17
TTFWeight: 400
TTFWidth: 5
LineGap: 0
VLineGap: 0
Panose: 2 0 5 3 0 0 0 0 0 0
OS2TypoAscent: 448
OS2TypoAOffset: 0
OS2TypoDescent: -64
OS2TypoDOffset: 0
OS2TypoLinegap: 0
OS2WinAscent: 448
OS2WinAOffset: 0
OS2WinDescent: 66
OS2WinDOffset: 0
HheadAscent: 448
HheadAOffset: 0
HheadDescent: -66
HheadDOffset: 0
OS2SubXSize: 324
OS2SubYSize: 358
OS2SubXOff: 0
OS2SubYOff: 71
OS2SupXSize: 324
OS2SupYSize: 358
OS2SupXOff: 0
OS2SupYOff: 245
OS2StrikeYSize: 25
OS2StrikeYPos: 132
OS2CapHeight: 384
OS2XHeight: 405
OS2Vendor: 'PfEd'
OS2CodePages: 00000001.00000000
OS2UnicodeRanges: 00000000.00000000.00000000.00000000
MarkAttachClasses: 1
DEI: 91125
ShortTable: cvt  2
  17
  324
EndShort
ShortTable: maxp 16
  1
  0
  64
  227
  8
  0
  0
  2
  0
  10
  10
  0
  255
  46
  0
  0
EndShort
LangName: 1033 "" "" "Regular" "FontForge 2.0 : Material Design Smart Home : 23-10-2023" "" "Version 1.0" "" "" "" "" "Generated by svg2ttf from Fontello project." "http://fontello.com"
GaspTable: 1 65535 2 0
Encoding: UnicodeBmp
UnicodeInterp: none
NameList: AGL For New Fonts
DisplaySize: -48
AntiAlias: 1
FitToEm: 0
WinInfo: 0 27 9
BeginChars: 65538 95

StartChar: .notdef
Encoding: 65536 -1 0
Width: 512
GlyphClass: 1
Flags: W
LayerCount: 2
Fore
SplineSet
17 0 m 1,0,-1
 17 341 l 1,1,-1
 153 341 l 1,2,-1
 153 0 l 1,3,-1
 17 0 l 1,0,-1
34 17 m 1,4,-1
 136 17 l 1,5,-1
 136 324 l 1,6,-1
 34 324 l 1,7,-1
 34 17 l 1,4,-1
EndSplineSet
Validated: 1
EndChar

StartChar: A
Encoding: 65 65 3
Width: 512
GlyphClass: 2
Flags: W
LayerCount: 2
Fore
SplineSet
256 299 m 256,0,1
 285 299 285 299 309.5 284.5 c 128,-1,2
 334 270 334 270 348.5 245.5 c 128,-1,3
 363 221 363 221 363 192 c 128,-1,4
 363 163 363 163 348.5 138.5 c 128,-1,5
 334 114 334 114 309.5 99.5 c 128,-1,6
 285 85 285 85 256 85 c 128,-1,7
 227 85 227 85 202.5 99.5 c 128,-1,8
 178 114 178 114 163.5 138.5 c 128,-1,9
 149 163 149 163 149 192 c 128,-1,10
 149 221 149 221 163.5 245.5 c 128,-1,11
 178 270 178 270 202.5 284.5 c 128,-1,12
 227 299 227 299 256 299 c 256,0,1
256 256 m 256,13,14
 229 256 229 256 210.5 237.5 c 128,-1,15
 192 219 192 219 192 192 c 128,-1,16
 192 165 192 165 210.5 146.5 c 128,-1,17
 229 128 229 128 256 128 c 128,-1,18
 283 128 283 128 301.5 146.5 c 128,-1,19
 320 165 320 165 320 192 c 128,-1,20
 320 219 320 219 301.5 237.5 c 128,-1,21
 283 256 283 256 256 256 c 256,13,14
256 405 m 1,22,-1
 307 332 l 1,23,24
 282 341 282 341 256 341 c 128,-1,25
 230 341 230 341 205 332 c 1,26,-1
 256 405 l 1,22,-1
71 299 m 1,27,-1
 160 306 l 1,28,29
 140 289 140 289 127 267 c 128,-1,30
 114 245 114 245 109 218 c 1,31,-1
 71 299 l 1,27,-1
72 85 m 1,32,-1
 109 166 l 1,33,34
 114 140 114 140 127 117.5 c 128,-1,35
 140 95 140 95 160 77 c 1,36,-1
 72 85 l 1,32,-1
441 299 m 1,37,-1
 403 218 l 1,38,39
 398 244 398 244 385 267 c 128,-1,40
 372 290 372 290 352 306 c 1,41,-1
 441 299 l 1,37,-1
440 85 m 1,42,-1
 352 78 l 1,43,44
 372 95 372 95 385 117.5 c 128,-1,45
 398 140 398 140 403 166 c 1,46,-1
 440 85 l 1,42,-1
256 -21 m 1,47,-1
 205 52 l 1,48,49
 230 43 230 43 255.5 43 c 128,-1,50
 281 43 281 43 307 52 c 1,51,-1
 256 -21 l 1,47,-1
EndSplineSet
Validated: 1
EndChar

StartChar: B
Encoding: 66 66 4
Width: 512
GlyphClass: 2
Flags: W
LayerCount: 2
Fore
SplineSet
379 361 m 1,0,-1
 325 319 l 1,1,-1
 344 254 l 1,2,-1
 288 293 l 1,3,-1
 232 254 l 1,4,-1
 251 319 l 1,5,-1
 197 361 l 1,6,-1
 265 363 l 1,7,-1
 288 427 l 1,8,-1
 311 363 l 1,9,-1
 379 361 l 1,0,-1
453 213 m 1,10,-1
 418 187 l 1,11,-1
 431 144 l 1,12,-1
 395 169 l 1,13,-1
 358 144 l 1,14,-1
 371 187 l 1,15,-1
 336 213 l 1,16,-1
 380 214 l 1,17,-1
 395 256 l 1,18,-1
 409 214 l 1,19,-1
 453 213 l 1,10,-1
405 108 m 0,20,21
 413 109 413 109 421.5 102 c 128,-1,22
 430 95 430 95 432.5 85.5 c 128,-1,23
 435 76 435 76 430 68 c 0,24,25
 419 52 419 52 407 41 c 0,26,27
 366 0 366 0 311 -14.5 c 128,-1,28
 256 -29 256 -29 201 -14.5 c 128,-1,29
 146 0 146 0 105 41 c 128,-1,30
 64 82 64 82 50 137 c 128,-1,31
 36 192 36 192 50 247 c 128,-1,32
 64 302 64 302 105 343 c 0,33,34
 118 356 118 356 132 366 c 0,35,36
 140 371 140 371 150 368 c 128,-1,37
 160 365 160 365 166.5 357 c 128,-1,38
 173 349 173 349 172 340 c 0,39,40
 168 294 168 294 183.5 249 c 128,-1,41
 199 204 199 204 233.5 169.5 c 128,-1,42
 268 135 268 135 313 119 c 128,-1,43
 358 103 358 103 405 108 c 0,20,21
370 65 m 1,44,45
 324 67 324 67 280.5 86 c 128,-1,46
 237 105 237 105 203 139 c 128,-1,47
 169 173 169 173 150 216 c 128,-1,48
 131 259 131 259 129 305 c 1,49,50
 99 272 99 272 89.5 229.5 c 128,-1,51
 80 187 80 187 92 145 c 128,-1,52
 104 103 104 103 135.5 71.5 c 128,-1,53
 167 40 167 40 209 28 c 128,-1,54
 251 16 251 16 294 25.5 c 128,-1,55
 337 35 337 35 370 65 c 1,44,45
EndSplineSet
Validated: 33
EndChar

StartChar: C
Encoding: 67 67 5
Width: 512
GlyphClass: 2
Flags: W
LayerCount: 2
Fore
SplineSet
272 331 m 0,0,1
 309 315 309 315 328 279 c 128,-1,2
 347 243 347 243 340 204 c 1,3,4
 360 186 360 186 372 160.5 c 128,-1,5
 384 135 384 135 384 107 c 2,6,-1
 384 103 l 1,7,8
 394 107 394 107 405 107 c 0,9,10
 432 107 432 107 450.5 88 c 128,-1,11
 469 69 469 69 469 42.5 c 128,-1,12
 469 16 469 16 450.5 -2.5 c 128,-1,13
 432 -21 432 -21 405 -21 c 2,14,-1
 128 -21 l 2,15,16
 93 -21 93 -21 68 4 c 128,-1,17
 43 29 43 29 43 64 c 128,-1,18
 43 99 43 99 68 124 c 128,-1,19
 93 149 93 149 128 149 c 2,20,-1
 134 149 l 1,21,22
 113 175 113 175 108 208 c 128,-1,23
 103 241 103 241 117 272 c 0,24,25
 130 301 130 301 155.5 319 c 128,-1,26
 181 337 181 337 212 340.5 c 128,-1,27
 243 344 243 344 272 331 c 0,0,1
255 292 m 0,28,29
 226 305 226 305 197 294 c 128,-1,30
 168 283 168 283 156 255 c 0,31,32
 149 239 149 239 149.5 221.5 c 128,-1,33
 150 204 150 204 158 189 c 1,34,35
 176 210 176 210 201.5 222.5 c 128,-1,36
 227 235 227 235 256 235 c 0,37,38
 278 235 278 235 299 227 c 1,39,40
 298 248 298 248 286 265.5 c 128,-1,41
 274 283 274 283 255 292 c 0,28,29
289 370 m 0,42,43
 272 378 272 378 253 381 c 1,44,-1
 307 409 l 1,45,-1
 326 348 l 1,46,47
 309 361 309 361 289 370 c 0,42,43
130 353 m 0,48,49
 114 342 114 342 102 328 c 1,50,-1
 105 388 l 1,51,-1
 168 373 l 1,52,53
 148 367 148 367 130 353 c 0,48,49
384 241 m 0,54,55
 381 261 381 261 375 277 c 1,56,-1
 426 245 l 1,57,-1
 382 198 l 1,58,59
 386 218 386 218 384 241 c 0,54,55
65 207 m 0,60,61
 67 188 67 188 73 171 c 1,62,-1
 23 203 l 1,63,-1
 66 250 l 1,64,65
 63 228 63 228 65 207 c 0,60,61
405 64 m 2,66,-1
 341 64 l 1,67,-1
 341 107 l 2,68,69
 341 142 341 142 316 167 c 128,-1,70
 291 192 291 192 256 192 c 128,-1,71
 221 192 221 192 196 167 c 128,-1,72
 171 142 171 142 171 107 c 1,73,-1
 128 107 l 2,74,75
 110 107 110 107 97.5 94.5 c 128,-1,76
 85 82 85 82 85 64 c 128,-1,77
 85 46 85 46 97.5 33.5 c 128,-1,78
 110 21 110 21 128 21 c 2,79,-1
 405 21 l 2,80,81
 414 21 414 21 420.5 27.5 c 128,-1,82
 427 34 427 34 427 43 c 128,-1,83
 427 52 427 52 420.5 58 c 128,-1,84
 414 64 414 64 405 64 c 2,66,-1
EndSplineSet
Validated: 33
EndChar

StartChar: D
Encoding: 68 68 6
Width: 512
GlyphClass: 2
Flags: W
LayerCount: 2
Fore
SplineSet
469 229 m 2,0,1
 461 228 461 228 454 228 c 0,2,3
 422 228 422 228 392.5 240 c 128,-1,4
 363 252 363 252 339 275 c 0,5,6
 313 301 313 301 301 335.5 c 128,-1,7
 289 370 289 370 293 405 c 0,8,9
 293 413 293 413 286 420 c 128,-1,10
 279 427 279 427 271 427 c 0,11,12
 267 427 267 427 263 424 c 0,13,14
 251 415 251 415 242 407 c 0,15,16
 206 370 206 370 197.5 320 c 128,-1,17
 189 270 189 270 210 225 c 1,18,19
 185 214 185 214 167.5 194 c 128,-1,20
 150 174 150 174 143 148 c 1,21,-1
 128 149 l 2,22,23
 93 149 93 149 68 124 c 128,-1,24
 43 99 43 99 43 64 c 128,-1,25
 43 29 43 29 68 4 c 128,-1,26
 93 -21 93 -21 128 -21 c 2,27,-1
 405 -21 l 2,28,29
 432 -21 432 -21 450.5 -2.5 c 128,-1,30
 469 16 469 16 469 42.5 c 128,-1,31
 469 69 469 69 450.5 88 c 128,-1,32
 432 107 432 107 405 107 c 0,33,34
 387 107 387 107 372 97 c 1,35,-1
 373 117 l 2,36,37
 373 127 373 127 372 132 c 1,38,39
 430 137 430 137 471 178 c 0,40,41
 478 185 478 185 488 199 c 0,42,43
 494 207 494 207 487 218 c 128,-1,44
 480 229 480 229 470 229 c 2,45,-1
 469 229 l 2,0,1
405 64 m 2,46,47
 414 64 414 64 420.5 58 c 128,-1,48
 427 52 427 52 427 43 c 128,-1,49
 427 34 427 34 420.5 27.5 c 128,-1,50
 414 21 414 21 405 21 c 2,51,-1
 128 21 l 2,52,53
 110 21 110 21 97.5 33.5 c 128,-1,54
 85 46 85 46 85 64 c 128,-1,55
 85 82 85 82 97.5 94.5 c 128,-1,56
 110 107 110 107 128 107 c 2,57,-1
 181 107 l 1,58,-1
 181 117 l 2,59,60
 181 142 181 142 195.5 161.5 c 128,-1,61
 210 181 210 181 233 188 c 0,62,63
 239 190 239 190 244 191 c 0,64,65
 252 192 252 192 257 192 c 128,-1,66
 262 192 262 192 270 191 c 0,67,68
 272 190 272 190 275 189 c 0,69,70
 280 188 280 188 283 187 c 2,71,-1
 288 184 l 2,72,73
 292 183 292 183 295 180 c 2,74,-1
 300 177 l 1,75,-1
 310 168 l 1,76,-1
 319 157 l 1,77,-1
 325 145 l 2,78,79
 331 132 331 132 331 117 c 2,80,-1
 331 64 l 1,81,-1
 405 64 l 2,46,47
359 174 m 1,82,83
 344 201 344 201 316.5 218 c 128,-1,84
 289 235 289 235 256 235 c 2,85,-1
 253 235 l 1,86,87
 238 262 238 262 238 293 c 128,-1,88
 238 324 238 324 253 351 c 1,89,90
 265 289 265 289 309.5 245 c 128,-1,91
 354 201 354 201 415 189 c 1,92,93
 390 174 390 174 359 174 c 1,82,83
EndSplineSet
Validated: 41
EndChar

StartChar: E
Encoding: 69 69 7
Width: 512
GlyphClass: 2
Flags: W
LayerCount: 2
Fore
SplineSet
256 405 m 1,0,-1
 307 332 l 1,1,2
 282 341 282 341 256 341 c 128,-1,3
 230 341 230 341 205 332 c 1,4,-1
 256 405 l 1,0,-1
71 299 m 1,5,-1
 160 306 l 1,6,7
 140 289 140 289 127 267 c 128,-1,8
 114 245 114 245 109 218 c 1,9,-1
 71 299 l 1,5,-1
441 299 m 1,10,-1
 403 218 l 1,11,12
 398 244 398 244 385 267 c 128,-1,13
 372 290 372 290 352 306 c 1,14,-1
 441 299 l 1,10,-1
299 128 m 256,15,16
 299 137 299 137 292.5 143 c 128,-1,17
 286 149 286 149 277 149 c 2,18,-1
 64 149 l 2,19,20
 55 149 55 149 49 143 c 128,-1,21
 43 137 43 137 43 128 c 128,-1,22
 43 119 43 119 49 113 c 128,-1,23
 55 107 55 107 64 107 c 2,24,-1
 277 107 l 2,25,26
 286 107 286 107 292.5 113 c 128,-1,27
 299 119 299 119 299 128 c 256,15,16
469 128 m 256,28,29
 469 137 469 137 463 143 c 128,-1,30
 457 149 457 149 448 149 c 2,31,-1
 363 149 l 2,32,33
 354 149 354 149 347.5 143 c 128,-1,34
 341 137 341 137 341 128 c 128,-1,35
 341 119 341 119 347.5 113 c 128,-1,36
 354 107 354 107 363 107 c 2,37,-1
 448 107 l 2,38,39
 457 107 457 107 463 113 c 128,-1,40
 469 119 469 119 469 128 c 256,28,29
213 43 m 256,41,42
 213 34 213 34 219.5 27.5 c 128,-1,43
 226 21 226 21 235 21 c 2,44,-1
 427 21 l 2,45,46
 436 21 436 21 442 27.5 c 128,-1,47
 448 34 448 34 448 43 c 128,-1,48
 448 52 448 52 442 58 c 128,-1,49
 436 64 436 64 427 64 c 2,50,-1
 235 64 l 2,51,52
 226 64 226 64 219.5 58 c 128,-1,53
 213 52 213 52 213 43 c 256,41,42
64 43 m 256,54,55
 64 34 64 34 70 27.5 c 128,-1,56
 76 21 76 21 85 21 c 2,57,-1
 149 21 l 2,58,59
 158 21 158 21 164.5 27.5 c 128,-1,60
 171 34 171 34 171 43 c 128,-1,61
 171 52 171 52 164.5 58 c 128,-1,62
 158 64 158 64 149 64 c 2,63,-1
 85 64 l 2,64,65
 76 64 76 64 70 58 c 128,-1,66
 64 52 64 52 64 43 c 256,54,55
256 256 m 256,67,68
 283 256 283 256 301.5 237.5 c 128,-1,69
 320 219 320 219 320 192 c 1,70,-1
 363 192 l 1,71,72
 363 221 363 221 348.5 245.5 c 128,-1,73
 334 270 334 270 309.5 284.5 c 128,-1,74
 285 299 285 299 256 299 c 128,-1,75
 227 299 227 299 202.5 284.5 c 128,-1,76
 178 270 178 270 163.5 245.5 c 128,-1,77
 149 221 149 221 149 192 c 1,78,-1
 192 192 l 1,79,80
 192 219 192 219 210.5 237.5 c 128,-1,81
 229 256 229 256 256 256 c 256,67,68
EndSplineSet
Validated: 9
EndChar

StartChar: F
Encoding: 70 70 8
Width: 512
GlyphClass: 2
Flags: W
LayerCount: 2
Fore
SplineSet
128 43 m 2,0,1
 99 43 99 43 74.5 57 c 128,-1,2
 50 71 50 71 35.5 95.5 c 128,-1,3
 21 120 21 120 21 149 c 128,-1,4
 21 178 21 178 35.5 202.5 c 128,-1,5
 50 227 50 227 74.5 241.5 c 128,-1,6
 99 256 99 256 128 256 c 1,7,8
 144 294 144 294 178.5 317.5 c 128,-1,9
 213 341 213 341 256 341 c 0,10,11
 292 341 292 341 323 324 c 128,-1,12
 354 307 354 307 373 277.5 c 128,-1,13
 392 248 392 248 395 213 c 1,14,-1
 405 213 l 2,15,16
 441 213 441 213 466 188 c 128,-1,17
 491 163 491 163 491 128 c 128,-1,18
 491 93 491 93 466 68 c 128,-1,19
 441 43 441 43 405 43 c 2,20,-1
 128 43 l 2,0,1
405 171 m 2,21,-1
 363 171 l 1,22,-1
 363 192 l 2,23,24
 363 221 363 221 348.5 245.5 c 128,-1,25
 334 270 334 270 309.5 284.5 c 128,-1,26
 285 299 285 299 256 299 c 0,27,28
 216 299 216 299 186.5 273.5 c 128,-1,29
 157 248 157 248 151 209 c 1,30,31
 139 213 139 213 128 213 c 0,32,33
 101 213 101 213 82.5 194.5 c 128,-1,34
 64 176 64 176 64 149.5 c 128,-1,35
 64 123 64 123 82.5 104 c 128,-1,36
 101 85 101 85 128 85 c 2,37,-1
 405 85 l 2,38,39
 423 85 423 85 435.5 97.5 c 128,-1,40
 448 110 448 110 448 128 c 128,-1,41
 448 146 448 146 435.5 158.5 c 128,-1,42
 423 171 423 171 405 171 c 2,21,-1
EndSplineSet
Validated: 1
EndChar

StartChar: G
Encoding: 71 71 9
Width: 512
GlyphClass: 2
Flags: W
LayerCount: 2
Fore
SplineSet
64 128 m 2,0,-1
 277 128 l 2,1,2
 286 128 286 128 292.5 122 c 128,-1,3
 299 116 299 116 299 107 c 128,-1,4
 299 98 299 98 292.5 91.5 c 128,-1,5
 286 85 286 85 277 85 c 2,6,-1
 64 85 l 2,7,8
 55 85 55 85 49 91.5 c 128,-1,9
 43 98 43 98 43 107 c 128,-1,10
 43 116 43 116 49 122 c 128,-1,11
 55 128 55 128 64 128 c 2,0,-1
341 128 m 2,12,-1
 448 128 l 2,13,14
 457 128 457 128 463 122 c 128,-1,15
 469 116 469 116 469 107 c 128,-1,16
 469 98 469 98 463 91.5 c 128,-1,17
 457 85 457 85 448 85 c 2,18,-1
 341 85 l 2,19,20
 332 85 332 85 326 91.5 c 128,-1,21
 320 98 320 98 320 107 c 128,-1,22
 320 116 320 116 326 122 c 128,-1,23
 332 128 332 128 341 128 c 2,12,-1
21 192 m 2,24,25
 21 221 21 221 35.5 245.5 c 128,-1,26
 50 270 50 270 74.5 284.5 c 128,-1,27
 99 299 99 299 128 299 c 1,28,29
 144 337 144 337 178.5 360.5 c 128,-1,30
 213 384 213 384 256 384 c 0,31,32
 292 384 292 384 323 367 c 128,-1,33
 354 350 354 350 373 320.5 c 128,-1,34
 392 291 392 291 395 255 c 1,35,-1
 405 256 l 2,36,37
 440 256 440 256 465 231 c 128,-1,38
 490 206 490 206 491 171 c 1,39,-1
 448 171 l 1,40,41
 448 188 448 188 435.5 200.5 c 128,-1,42
 423 213 423 213 405 213 c 2,43,-1
 363 213 l 1,44,-1
 363 235 l 2,45,46
 363 264 363 264 348.5 288.5 c 128,-1,47
 334 313 334 313 309.5 327 c 128,-1,48
 285 341 285 341 256 341 c 0,49,50
 216 341 216 341 186.5 315.5 c 128,-1,51
 157 290 157 290 151 252 c 1,52,53
 139 256 139 256 128 256 c 0,54,55
 101 256 101 256 82.5 237.5 c 128,-1,56
 64 219 64 219 64 192 c 0,57,58
 64 181 64 181 68 171 c 1,59,-1
 23 171 l 1,60,-1
 21 192 l 2,24,25
64 43 m 2,61,-1
 107 43 l 2,62,63
 116 43 116 43 122 36.5 c 128,-1,64
 128 30 128 30 128 21 c 128,-1,65
 128 12 128 12 122 6 c 128,-1,66
 116 0 116 0 107 0 c 2,67,-1
 64 0 l 2,68,69
 55 0 55 0 49 6 c 128,-1,70
 43 12 43 12 43 21 c 128,-1,71
 43 30 43 30 49 36.5 c 128,-1,72
 55 43 55 43 64 43 c 2,61,-1
171 43 m 2,73,-1
 448 43 l 2,74,75
 457 43 457 43 463 36.5 c 128,-1,76
 469 30 469 30 469 21 c 128,-1,77
 469 12 469 12 463 6 c 128,-1,78
 457 0 457 0 448 0 c 2,79,-1
 171 0 l 2,80,81
 162 0 162 0 155.5 6 c 128,-1,82
 149 12 149 12 149 21 c 128,-1,83
 149 30 149 30 155.5 36.5 c 128,-1,84
 162 43 162 43 171 43 c 2,73,-1
EndSplineSet
Validated: 1
EndChar

StartChar: H
Encoding: 72 72 10
Width: 512
GlyphClass: 2
Flags: W
LayerCount: 2
Fore
SplineSet
128 149 m 0,0,1
 137 149 137 149 143 143 c 128,-1,2
 149 137 149 137 149 128 c 128,-1,3
 149 119 149 119 143 113 c 128,-1,4
 137 107 137 107 128 107 c 0,5,6
 99 107 99 107 74.5 121 c 128,-1,7
 50 135 50 135 35.5 159.5 c 128,-1,8
 21 184 21 184 21 213 c 128,-1,9
 21 242 21 242 35.5 266.5 c 128,-1,10
 50 291 50 291 74.5 305.5 c 128,-1,11
 99 320 99 320 128 320 c 1,12,13
 144 358 144 358 178.5 381.5 c 128,-1,14
 213 405 213 405 256 405 c 0,15,16
 292 405 292 405 323 388 c 128,-1,17
 354 371 354 371 373 341.5 c 128,-1,18
 392 312 392 312 395 277 c 1,19,-1
 405 277 l 2,20,21
 441 277 441 277 466 252 c 128,-1,22
 491 227 491 227 491 192 c 128,-1,23
 491 157 491 157 466 132 c 128,-1,24
 441 107 441 107 405 107 c 2,25,-1
 384 107 l 2,26,27
 375 107 375 107 369 113 c 128,-1,28
 363 119 363 119 363 128 c 128,-1,29
 363 137 363 137 369 143 c 128,-1,30
 375 149 375 149 384 149 c 2,31,-1
 405 149 l 2,32,33
 423 149 423 149 435.5 161.5 c 128,-1,34
 448 174 448 174 448 192 c 128,-1,35
 448 210 448 210 435.5 222.5 c 128,-1,36
 423 235 423 235 405 235 c 2,37,-1
 363 235 l 1,38,-1
 363 256 l 2,39,40
 363 285 363 285 348.5 309.5 c 128,-1,41
 334 334 334 334 309.5 348.5 c 128,-1,42
 285 363 285 363 256 363 c 0,43,44
 216 363 216 363 186.5 337.5 c 128,-1,45
 157 312 157 312 151 273 c 1,46,47
 139 277 139 277 128 277 c 0,48,49
 101 277 101 277 82.5 258.5 c 128,-1,50
 64 240 64 240 64 213.5 c 128,-1,51
 64 187 64 187 82.5 168 c 128,-1,52
 101 149 101 149 128 149 c 0,0,1
213 64 m 0,53,54
 231 64 231 64 243.5 51.5 c 128,-1,55
 256 39 256 39 256 21.5 c 128,-1,56
 256 4 256 4 243.5 -8.5 c 128,-1,57
 231 -21 231 -21 213.5 -21 c 128,-1,58
 196 -21 196 -21 183.5 -8.5 c 128,-1,59
 171 4 171 4 171 21.5 c 128,-1,60
 171 39 171 39 183.5 51.5 c 128,-1,61
 196 64 196 64 213 64 c 0,53,54
309 107 m 0,62,63
 323 107 323 107 332 97.5 c 128,-1,64
 341 88 341 88 341 74.5 c 128,-1,65
 341 61 341 61 332 52 c 128,-1,66
 323 43 323 43 309.5 43 c 128,-1,67
 296 43 296 43 286.5 52 c 128,-1,68
 277 61 277 61 277 74.5 c 128,-1,69
 277 88 277 88 286.5 97.5 c 128,-1,70
 296 107 296 107 309 107 c 0,62,63
224 192 m 256,71,72
 237 192 237 192 246.5 182.5 c 128,-1,73
 256 173 256 173 256 160 c 128,-1,74
 256 147 256 147 246.5 137.5 c 128,-1,75
 237 128 237 128 224 128 c 128,-1,76
 211 128 211 128 201.5 137.5 c 128,-1,77
 192 147 192 147 192 160 c 128,-1,78
 192 173 192 173 201.5 182.5 c 128,-1,79
 211 192 211 192 224 192 c 256,71,72
EndSplineSet
Validated: 1
EndChar

StartChar: I
Encoding: 73 73 11
Width: 512
GlyphClass: 2
Flags: W
LayerCount: 2
Fore
SplineSet
192 192 m 0,0,1
 200 190 200 190 204.5 182 c 128,-1,2
 209 174 209 174 207 166 c 2,3,-1
 179 63 l 2,4,5
 177 54 177 54 169.5 50 c 128,-1,6
 162 46 162 46 153.5 48 c 128,-1,7
 145 50 145 50 140.5 57.5 c 128,-1,8
 136 65 136 65 139 74 c 2,9,-1
 166 177 l 2,10,11
 168 185 168 185 175.5 189.5 c 128,-1,12
 183 194 183 194 192 192 c 0,0,1
277 192 m 0,13,14
 286 190 286 190 290.5 182 c 128,-1,15
 295 174 295 174 292 166 c 2,16,-1
 248 1 l 2,17,18
 246 -8 246 -8 238.5 -12 c 128,-1,19
 231 -16 231 -16 222.5 -14 c 128,-1,20
 214 -12 214 -12 209.5 -4 c 128,-1,21
 205 4 205 4 207 12 c 2,22,-1
 251 177 l 2,23,24
 254 185 254 185 261.5 189.5 c 128,-1,25
 269 194 269 194 277 192 c 0,13,14
363 192 m 0,26,27
 371 190 371 190 375.5 182 c 128,-1,28
 380 174 380 174 378 166 c 2,29,-1
 350 63 l 2,30,31
 348 54 348 54 340.5 50 c 128,-1,32
 333 46 333 46 324 48 c 128,-1,33
 315 50 315 50 311 57.5 c 128,-1,34
 307 65 307 65 309 74 c 2,35,-1
 337 177 l 2,36,37
 339 185 339 185 346.5 189.5 c 128,-1,38
 354 194 354 194 363 192 c 0,26,27
363 235 m 1,39,-1
 363 256 l 2,40,41
 363 285 363 285 348.5 309.5 c 128,-1,42
 334 334 334 334 309.5 348.5 c 128,-1,43
 285 363 285 363 256 363 c 0,44,45
 216 363 216 363 186.5 337.5 c 128,-1,46
 157 312 157 312 151 273 c 1,47,48
 139 277 139 277 128 277 c 0,49,50
 101 277 101 277 82.5 258.5 c 128,-1,51
 64 240 64 240 64 213 c 0,52,53
 64 196 64 196 72.5 181 c 128,-1,54
 81 166 81 166 96 158 c 1,55,-1
 96 158 l 1,56,57
 104 154 104 154 106 145 c 128,-1,58
 108 136 108 136 103.5 128.5 c 128,-1,59
 99 121 99 121 91 119 c 128,-1,60
 83 117 83 117 75 121 c 1,61,-1
 75 121 l 1,62,63
 50 135 50 135 35.5 159.5 c 128,-1,64
 21 184 21 184 21 213 c 128,-1,65
 21 242 21 242 35.5 266.5 c 128,-1,66
 50 291 50 291 74.5 305.5 c 128,-1,67
 99 320 99 320 128 320 c 1,68,69
 144 358 144 358 178.5 381.5 c 128,-1,70
 213 405 213 405 256 405 c 0,71,72
 292 405 292 405 323 388 c 128,-1,73
 354 371 354 371 373 341.5 c 128,-1,74
 392 312 392 312 395 277 c 1,75,-1
 405 277 l 2,76,77
 441 277 441 277 466 252 c 128,-1,78
 491 227 491 227 491 192 c 0,79,80
 491 168 491 168 479.5 148.5 c 128,-1,81
 468 129 468 129 448 118 c 1,82,-1
 448 118 l 1,83,84
 440 114 440 114 431.5 116 c 128,-1,85
 423 118 423 118 418.5 126 c 128,-1,86
 414 134 414 134 416.5 142.5 c 128,-1,87
 419 151 419 151 427 155 c 1,88,-1
 427 155 l 1,89,90
 436 161 436 161 442 170.5 c 128,-1,91
 448 180 448 180 448 192 c 0,92,93
 448 210 448 210 435.5 222.5 c 128,-1,94
 423 235 423 235 405 235 c 2,95,-1
 363 235 l 1,39,-1
EndSplineSet
Validated: 33
EndChar

StartChar: J
Encoding: 74 74 12
Width: 512
GlyphClass: 2
Flags: W
LayerCount: 2
Fore
SplineSet
128 149 m 0,0,1
 137 149 137 149 143 142.5 c 128,-1,2
 149 136 149 136 149 127.5 c 128,-1,3
 149 119 149 119 143 112.5 c 128,-1,4
 137 106 137 106 128 106 c 0,5,6
 99 106 99 106 74.5 120.5 c 128,-1,7
 50 135 50 135 35.5 159.5 c 128,-1,8
 21 184 21 184 21 213 c 128,-1,9
 21 242 21 242 35.5 266.5 c 128,-1,10
 50 291 50 291 74.5 305 c 128,-1,11
 99 319 99 319 128 319 c 1,12,13
 144 358 144 358 178.5 381.5 c 128,-1,14
 213 405 213 405 256 405 c 0,15,16
 292 405 292 405 323 387.5 c 128,-1,17
 354 370 354 370 373 341 c 128,-1,18
 392 312 392 312 395 276 c 1,19,-1
 405 277 l 2,20,21
 441 277 441 277 466 252 c 128,-1,22
 491 227 491 227 491 191.5 c 128,-1,23
 491 156 491 156 466 131 c 128,-1,24
 441 106 441 106 405 106 c 2,25,-1
 384 106 l 2,26,27
 375 106 375 106 369 112.5 c 128,-1,28
 363 119 363 119 363 127.5 c 128,-1,29
 363 136 363 136 369 142.5 c 128,-1,30
 375 149 375 149 384 149 c 2,31,-1
 405 149 l 2,32,33
 423 149 423 149 435.5 161.5 c 128,-1,34
 448 174 448 174 448 191.5 c 128,-1,35
 448 209 448 209 435.5 221.5 c 128,-1,36
 423 234 423 234 405 234 c 2,37,-1
 363 234 l 1,38,-1
 363 255 l 2,39,40
 363 284 363 284 348.5 308.5 c 128,-1,41
 334 333 334 333 309.5 347.5 c 128,-1,42
 285 362 285 362 256 362 c 0,43,44
 216 362 216 362 186.5 336.5 c 128,-1,45
 157 311 157 311 151 273 c 1,46,47
 140 277 140 277 128 277 c 0,48,49
 101 277 101 277 82.5 258 c 128,-1,50
 64 239 64 239 64 212.5 c 128,-1,51
 64 186 64 186 82.5 167.5 c 128,-1,52
 101 149 101 149 128 149 c 0,0,1
256 146 m 1,53,54
 261 139 261 139 268 129 c 0,55,56
 299 86 299 86 299 64 c 0,57,58
 299 46 299 46 286.5 33.5 c 128,-1,59
 274 21 274 21 256 21 c 128,-1,60
 238 21 238 21 225.5 33.5 c 128,-1,61
 213 46 213 46 213 64 c 0,62,63
 213 86 213 86 244 129 c 2,64,-1
 256 146 l 1,53,54
256 213 m 1,65,-1
 245 201 l 1,66,-1
 234 187 l 2,67,68
 220 170 220 170 209 153 c 0,69,70
 191 128 191 128 183 110 c 0,71,72
 171 85 171 85 171 64 c 0,73,74
 171 29 171 29 196 4 c 128,-1,75
 221 -21 221 -21 256 -21 c 128,-1,76
 291 -21 291 -21 316 4 c 128,-1,77
 341 29 341 29 341 64 c 0,78,79
 341 85 341 85 329 110 c 0,80,81
 321 128 321 128 303 154 c 128,-1,82
 285 180 285 180 267 201 c 1,83,-1
 267 201 l 1,84,-1
 256 213 l 1,65,-1
EndSplineSet
Validated: 5
EndChar

StartChar: K
Encoding: 75 75 13
Width: 512
GlyphClass: 2
Flags: W
LayerCount: 2
Fore
SplineSet
272 353 m 0,0,1
 309 336 309 336 328 300 c 128,-1,2
 347 264 347 264 340 225 c 1,3,4
 360 207 360 207 372 181.5 c 128,-1,5
 384 156 384 156 384 128 c 2,6,-1
 384 124 l 1,7,8
 394 128 394 128 405 128 c 0,9,10
 432 128 432 128 450.5 109.5 c 128,-1,11
 469 91 469 91 469 64 c 128,-1,12
 469 37 469 37 450.5 18.5 c 128,-1,13
 432 0 432 0 405 0 c 2,14,-1
 363 0 l 1,15,-1
 357 1 l 2,16,17
 351 2 351 2 347 6 c 0,18,19
 341 12 341 12 341 21 c 0,20,21
 341 35 341 35 352 40 c 0,22,23
 357 43 357 43 363 43 c 2,24,-1
 405 43 l 2,25,26
 414 43 414 43 420.5 49 c 128,-1,27
 427 55 427 55 427 64 c 128,-1,28
 427 73 427 73 420.5 79 c 128,-1,29
 414 85 414 85 405 85 c 2,30,-1
 341 85 l 1,31,-1
 341 128 l 2,32,33
 341 163 341 163 316 188 c 128,-1,34
 291 213 291 213 256 213 c 128,-1,35
 221 213 221 213 196 188 c 128,-1,36
 171 163 171 163 171 128 c 1,37,-1
 128 128 l 2,38,39
 110 128 110 128 97.5 115.5 c 128,-1,40
 85 103 85 103 85 85.5 c 128,-1,41
 85 68 85 68 97.5 55.5 c 128,-1,42
 110 43 110 43 128 43 c 2,43,-1
 149 43 l 1,44,-1
 155 42 l 2,45,46
 161 40 161 40 165 36 c 0,47,48
 171 31 171 31 171 21.5 c 128,-1,49
 171 12 171 12 165 6 c 0,50,51
 161 2 161 2 155 1 c 2,52,-1
 149 0 l 1,53,-1
 128 0 l 2,54,55
 93 0 93 0 68 25 c 128,-1,56
 43 50 43 50 43 85.5 c 128,-1,57
 43 121 43 121 68 146 c 128,-1,58
 93 171 93 171 128 171 c 2,59,-1
 134 171 l 1,60,61
 113 196 113 196 108 229 c 128,-1,62
 103 262 103 262 117 293 c 0,63,64
 130 322 130 322 155.5 340.5 c 128,-1,65
 181 359 181 359 212 362.5 c 128,-1,66
 243 366 243 366 272 353 c 0,0,1
255 314 m 0,67,68
 226 326 226 326 197 315 c 128,-1,69
 168 304 168 304 156 276 c 0,70,71
 149 260 149 260 149.5 242.5 c 128,-1,72
 150 225 150 225 158 211 c 1,73,74
 176 232 176 232 201.5 244 c 128,-1,75
 227 256 227 256 256 256 c 0,76,77
 278 256 278 256 299 249 c 1,78,79
 298 270 298 270 286 287.5 c 128,-1,80
 274 305 274 305 255 314 c 0,67,68
289 392 m 0,81,82
 271 399 271 399 253 403 c 1,83,-1
 307 431 l 1,84,-1
 326 369 l 1,85,86
 309 382 309 382 289 392 c 0,81,82
130 375 m 0,87,88
 114 364 114 364 102 349 c 1,89,-1
 105 409 l 1,90,-1
 168 395 l 1,91,92
 148 388 148 388 130 375 c 0,87,88
384 262 m 0,93,94
 381 282 381 282 375 299 c 1,95,-1
 426 267 l 1,96,-1
 382 219 l 1,97,98
 386 239 386 239 384 262 c 0,93,94
65 228 m 0,99,100
 67 210 67 210 73 192 c 1,101,-1
 23 224 l 1,102,-1
 66 271 l 1,103,104
 63 249 63 249 65 228 c 0,99,100
256 45 m 1,105,106
 277 12 277 12 277 0 c 0,107,108
 277 -9 277 -9 271 -15 c 128,-1,109
 265 -21 265 -21 256 -21 c 128,-1,110
 247 -21 247 -21 241 -15 c 128,-1,111
 235 -9 235 -9 235 0 c 0,112,113
 235 12 235 12 256 45 c 1,105,106
256 115 m 1,114,115
 248 105 248 105 239 94 c 0,116,117
 220 70 220 70 209 49 c 0,118,119
 192 19 192 19 192 0 c 0,120,121
 192 -27 192 -27 210.5 -45.5 c 128,-1,122
 229 -64 229 -64 256 -64 c 128,-1,123
 283 -64 283 -64 301.5 -45.5 c 128,-1,124
 320 -27 320 -27 320 0 c 0,125,126
 320 19 320 19 303 49 c 0,127,128
 292 70 292 70 273 94 c 2,129,-1
 256 115 l 1,114,115
EndSplineSet
Validated: 41
EndChar

StartChar: L
Encoding: 76 76 14
Width: 512
GlyphClass: 2
Flags: W
LayerCount: 2
Fore
SplineSet
128 149 m 0,0,1
 137 149 137 149 143 143 c 128,-1,2
 149 137 149 137 149 128 c 128,-1,3
 149 119 149 119 143 113 c 128,-1,4
 137 107 137 107 128 107 c 0,5,6
 99 107 99 107 74.5 121 c 128,-1,7
 50 135 50 135 35.5 159.5 c 128,-1,8
 21 184 21 184 21 213 c 128,-1,9
 21 242 21 242 35.5 266.5 c 128,-1,10
 50 291 50 291 74.5 305.5 c 128,-1,11
 99 320 99 320 128 320 c 1,12,13
 144 358 144 358 178.5 381.5 c 128,-1,14
 213 405 213 405 256 405 c 0,15,16
 292 405 292 405 323 388 c 128,-1,17
 354 371 354 371 373 341.5 c 128,-1,18
 392 312 392 312 395 277 c 1,19,-1
 405 277 l 2,20,21
 441 277 441 277 466 252 c 128,-1,22
 491 227 491 227 491 192 c 128,-1,23
 491 157 491 157 466 132 c 128,-1,24
 441 107 441 107 405 107 c 2,25,-1
 384 107 l 2,26,27
 375 107 375 107 369 113 c 128,-1,28
 363 119 363 119 363 128 c 128,-1,29
 363 137 363 137 369 143 c 128,-1,30
 375 149 375 149 384 149 c 2,31,-1
 405 149 l 2,32,33
 423 149 423 149 435.5 161.5 c 128,-1,34
 448 174 448 174 448 192 c 128,-1,35
 448 210 448 210 435.5 222.5 c 128,-1,36
 423 235 423 235 405 235 c 2,37,-1
 363 235 l 1,38,-1
 363 256 l 2,39,40
 363 285 363 285 348.5 309.5 c 128,-1,41
 334 334 334 334 309.5 348.5 c 128,-1,42
 285 363 285 363 256 363 c 0,43,44
 216 363 216 363 186.5 337.5 c 128,-1,45
 157 312 157 312 151 273 c 1,46,47
 139 277 139 277 128 277 c 0,48,49
 101 277 101 277 82.5 258.5 c 128,-1,50
 64 240 64 240 64 213.5 c 128,-1,51
 64 187 64 187 82.5 168 c 128,-1,52
 101 149 101 149 128 149 c 0,0,1
168 63 m 2,53,-1
 215 75 l 1,54,-1
 180 109 l 2,55,56
 174 115 174 115 174 124 c 128,-1,57
 174 133 174 133 180.5 139.5 c 128,-1,58
 187 146 187 146 196 146 c 128,-1,59
 205 146 205 146 211 140 c 2,60,-1
 245 105 l 1,61,-1
 257 152 l 2,62,63
 260 160 260 160 267.5 164.5 c 128,-1,64
 275 169 275 169 283.5 167 c 128,-1,65
 292 165 292 165 296.5 157 c 128,-1,66
 301 149 301 149 299 141 c 2,67,-1
 286 94 l 1,68,-1
 333 107 l 2,69,70
 341 109 341 109 349 104.5 c 128,-1,71
 357 100 357 100 359 91.5 c 128,-1,72
 361 83 361 83 356.5 75.5 c 128,-1,73
 352 68 352 68 344 65 c 2,74,-1
 297 53 l 1,75,-1
 332 19 l 2,76,77
 338 13 338 13 338 4 c 128,-1,78
 338 -5 338 -5 331.5 -11.5 c 128,-1,79
 325 -18 325 -18 316 -18 c 128,-1,80
 307 -18 307 -18 301 -12 c 2,81,-1
 267 23 l 1,82,-1
 255 -24 l 2,83,84
 252 -32 252 -32 244.5 -36.5 c 128,-1,85
 237 -41 237 -41 228.5 -39 c 128,-1,86
 220 -37 220 -37 215.5 -29 c 128,-1,87
 211 -21 211 -21 213 -13 c 2,88,-1
 226 34 l 1,89,-1
 179 21 l 2,90,91
 171 19 171 19 163 23.5 c 128,-1,92
 155 28 155 28 153 36.5 c 128,-1,93
 151 45 151 45 155.5 52.5 c 128,-1,94
 160 60 160 60 168 63 c 2,53,-1
EndSplineSet
Validated: 33
EndChar

StartChar: M
Encoding: 77 77 15
Width: 512
GlyphClass: 2
Flags: W
LayerCount: 2
Fore
SplineSet
85 99 m 0,0,1
 83 108 83 108 87.5 115.5 c 128,-1,2
 92 123 92 123 101 126 c 2,3,-1
 149 139 l 1,4,-1
 114 174 l 2,5,6
 107 180 107 180 107 189 c 128,-1,7
 107 198 107 198 113.5 204.5 c 128,-1,8
 120 211 120 211 129.5 211 c 128,-1,9
 139 211 139 211 145 205 c 2,10,-1
 180 170 l 1,11,-1
 193 218 l 2,12,13
 195 227 195 227 203 231.5 c 128,-1,14
 211 236 211 236 219.5 233.5 c 128,-1,15
 228 231 228 231 232.5 223 c 128,-1,16
 237 215 237 215 235 206 c 2,17,-1
 222 158 l 1,18,-1
 270 171 l 2,19,20
 279 173 279 173 287 168.5 c 128,-1,21
 295 164 295 164 297.5 155.5 c 128,-1,22
 300 147 300 147 295.5 139 c 128,-1,23
 291 131 291 131 282 129 c 2,24,-1
 234 116 l 1,25,-1
 269 81 l 2,26,27
 275 75 275 75 275 65.5 c 128,-1,28
 275 56 275 56 268.5 49.5 c 128,-1,29
 262 43 262 43 253 43 c 128,-1,30
 244 43 244 43 238 50 c 2,31,-1
 203 85 l 1,32,-1
 190 37 l 2,33,34
 187 28 187 28 179.5 23.5 c 128,-1,35
 172 19 172 19 163 21.5 c 128,-1,36
 154 24 154 24 149.5 31.5 c 128,-1,37
 145 39 145 39 147 48 c 2,38,-1
 160 96 l 1,39,-1
 112 83 l 2,40,41
 103 81 103 81 95.5 85.5 c 128,-1,42
 88 90 88 90 85 99 c 0,0,1
21 235 m 0,43,44
 21 256 21 256 29.5 275.5 c 128,-1,45
 38 295 38 295 53 310 c 128,-1,46
 68 325 68 325 87.5 333 c 128,-1,47
 107 341 107 341 128 341 c 1,48,49
 144 380 144 380 178.5 403.5 c 128,-1,50
 213 427 213 427 256 427 c 0,51,52
 292 427 292 427 323 409.5 c 128,-1,53
 354 392 354 392 373 363 c 128,-1,54
 392 334 392 334 395 298 c 1,55,-1
 405 299 l 2,56,57
 441 299 441 299 466 274 c 128,-1,58
 491 249 491 249 491 213.5 c 128,-1,59
 491 178 491 178 466 153 c 128,-1,60
 441 128 441 128 405 128 c 0,61,62
 396 128 396 128 390 134 c 128,-1,63
 384 140 384 140 384 149 c 128,-1,64
 384 158 384 158 390 164.5 c 128,-1,65
 396 171 396 171 405 171 c 0,66,67
 423 171 423 171 435.5 183.5 c 128,-1,68
 448 196 448 196 448 213.5 c 128,-1,69
 448 231 448 231 435.5 243.5 c 128,-1,70
 423 256 423 256 405 256 c 2,71,-1
 363 256 l 1,72,-1
 363 277 l 2,73,74
 363 306 363 306 348.5 330.5 c 128,-1,75
 334 355 334 355 309.5 369.5 c 128,-1,76
 285 384 285 384 256 384 c 0,77,78
 216 384 216 384 186.5 358.5 c 128,-1,79
 157 333 157 333 151 295 c 1,80,81
 139 299 139 299 128 299 c 0,82,83
 101 299 101 299 82.5 280 c 128,-1,84
 64 261 64 261 64 234.5 c 128,-1,85
 64 208 64 208 83 189 c 0,86,87
 89 182 89 182 89 173.5 c 128,-1,88
 89 165 89 165 83 159 c 128,-1,89
 77 153 77 153 68 153 c 128,-1,90
 59 153 59 153 53 159 c 0,91,92
 38 174 38 174 29.5 193.5 c 128,-1,93
 21 213 21 213 21 235 c 0,43,44
299 12 m 0,94,95
 301 6 301 6 306.5 3 c 128,-1,96
 312 0 312 0 318 1 c 2,97,-1
 352 11 l 1,98,-1
 343 -23 l 2,99,100
 341 -30 341 -30 344 -35 c 128,-1,101
 347 -40 347 -40 353.5 -42 c 128,-1,102
 360 -44 360 -44 365.5 -40.5 c 128,-1,103
 371 -37 371 -37 372 -31 c 2,104,-1
 381 2 l 1,105,-1
 406 -22 l 2,106,107
 410 -27 410 -27 416.5 -27 c 128,-1,108
 423 -27 423 -27 427.5 -22.5 c 128,-1,109
 432 -18 432 -18 432 -11.5 c 128,-1,110
 432 -5 432 -5 428 -1 c 2,111,-1
 403 24 l 1,112,-1
 436 33 l 2,113,114
 443 35 443 35 446 40.5 c 128,-1,115
 449 46 449 46 447.5 52 c 128,-1,116
 446 58 446 58 440.5 61 c 128,-1,117
 435 64 435 64 429 63 c 2,118,-1
 395 53 l 1,119,-1
 404 87 l 2,120,121
 406 94 406 94 402.5 99 c 128,-1,122
 399 104 399 104 393 106 c 128,-1,123
 387 108 387 108 381.5 104.5 c 128,-1,124
 376 101 376 101 374 95 c 2,125,-1
 366 62 l 1,126,-1
 341 86 l 2,127,128
 336 91 336 91 329.5 91 c 128,-1,129
 323 91 323 91 318.5 86.5 c 128,-1,130
 314 82 314 82 314 75.5 c 128,-1,131
 314 69 314 69 319 65 c 2,132,-1
 344 40 l 1,133,-1
 310 31 l 2,134,135
 304 29 304 29 301 23.5 c 128,-1,136
 298 18 298 18 299 12 c 0,94,95
EndSplineSet
Validated: 41
EndChar

StartChar: N
Encoding: 78 78 16
Width: 512
GlyphClass: 2
Flags: W
LayerCount: 2
Fore
SplineSet
395 50 m 0,0,1
 395 29 395 29 381 14.5 c 128,-1,2
 367 0 367 0 347 0 c 128,-1,3
 327 0 327 0 313 14.5 c 128,-1,4
 299 29 299 29 299 49.5 c 128,-1,5
 299 70 299 70 323 107 c 0,6,7
 335 125 335 125 347 139 c 1,8,-1
 347 139 l 1,9,-1
 359 123 l 2,10,11
 373 104 373 104 382 87 c 0,12,13
 395 64 395 64 395 50 c 0,0,1
85 78 m 0,14,15
 83 86 83 86 87.5 94 c 128,-1,16
 92 102 92 102 101 104 c 2,17,-1
 149 117 l 1,18,-1
 114 152 l 2,19,20
 107 159 107 159 107 168 c 128,-1,21
 107 177 107 177 113.5 183.5 c 128,-1,22
 120 190 120 190 129.5 190 c 128,-1,23
 139 190 139 190 145 183 c 2,24,-1
 180 148 l 1,25,-1
 193 196 l 2,26,27
 195 205 195 205 203 209.5 c 128,-1,28
 211 214 211 214 219.5 212 c 128,-1,29
 228 210 228 210 232.5 202 c 128,-1,30
 237 194 237 194 235 185 c 2,31,-1
 222 137 l 1,32,-1
 270 149 l 2,33,34
 279 152 279 152 287 147.5 c 128,-1,35
 295 143 295 143 297.5 134 c 128,-1,36
 300 125 300 125 295.5 117.5 c 128,-1,37
 291 110 291 110 282 108 c 2,38,-1
 234 95 l 1,39,-1
 269 60 l 2,40,41
 275 53 275 53 275 44 c 128,-1,42
 275 35 275 35 268.5 28.5 c 128,-1,43
 262 22 262 22 253 22 c 128,-1,44
 244 22 244 22 238 28 c 2,45,-1
 203 64 l 1,46,-1
 190 16 l 2,47,48
 187 7 187 7 179.5 2.5 c 128,-1,49
 172 -2 172 -2 163 0 c 128,-1,50
 154 2 154 2 149.5 10 c 128,-1,51
 145 18 145 18 147 27 c 2,52,-1
 160 75 l 1,53,-1
 112 62 l 2,54,55
 103 60 103 60 95.5 64.5 c 128,-1,56
 88 69 88 69 85 78 c 0,14,15
21 213 m 0,57,58
 21 242 21 242 35.5 266.5 c 128,-1,59
 50 291 50 291 74.5 305.5 c 128,-1,60
 99 320 99 320 128 320 c 1,61,62
 144 358 144 358 178.5 381.5 c 128,-1,63
 213 405 213 405 256 405 c 0,64,65
 292 405 292 405 323 388 c 128,-1,66
 354 371 354 371 373 341.5 c 128,-1,67
 392 312 392 312 395 277 c 1,68,-1
 405 277 l 2,69,70
 441 277 441 277 466 252 c 128,-1,71
 491 227 491 227 491 192 c 128,-1,72
 491 157 491 157 466 132 c 128,-1,73
 441 107 441 107 405 107 c 0,74,75
 396 107 396 107 390 113 c 128,-1,76
 384 119 384 119 384 128 c 128,-1,77
 384 137 384 137 390 143 c 128,-1,78
 396 149 396 149 405 149 c 0,79,80
 423 149 423 149 435.5 161.5 c 128,-1,81
 448 174 448 174 448 192 c 128,-1,82
 448 210 448 210 435.5 222.5 c 128,-1,83
 423 235 423 235 405 235 c 2,84,-1
 363 235 l 1,85,-1
 363 256 l 2,86,87
 363 285 363 285 348.5 309.5 c 128,-1,88
 334 334 334 334 309.5 348.5 c 128,-1,89
 285 363 285 363 256 363 c 0,90,91
 216 363 216 363 186.5 337.5 c 128,-1,92
 157 312 157 312 151 273 c 1,93,94
 139 277 139 277 128 277 c 0,95,96
 101 277 101 277 82.5 258.5 c 128,-1,97
 64 240 64 240 64 213 c 128,-1,98
 64 186 64 186 83 167 c 0,99,100
 89 161 89 161 89 152.5 c 128,-1,101
 89 144 89 144 83 138 c 128,-1,102
 77 132 77 132 68 132 c 128,-1,103
 59 132 59 132 53 138 c 0,104,105
 38 153 38 153 29.5 172.5 c 128,-1,106
 21 192 21 192 21 213 c 0,57,58
EndSplineSet
Validated: 37
EndChar

StartChar: O
Encoding: 79 79 17
Width: 512
GlyphClass: 2
Flags: W
LayerCount: 2
Fore
SplineSet
128 42 m 2,0,1
 110 42 110 42 97.5 54.5 c 128,-1,2
 85 67 85 67 85 84.5 c 128,-1,3
 85 102 85 102 97.5 114.5 c 128,-1,4
 110 127 110 127 128 127 c 2,5,-1
 171 127 l 1,6,7
 171 163 171 163 196 188 c 128,-1,8
 221 213 221 213 256 213 c 128,-1,9
 291 213 291 213 316 188 c 128,-1,10
 341 163 341 163 341 127 c 2,11,-1
 341 85 l 1,12,-1
 405 85 l 2,13,14
 414 85 414 85 420.5 78.5 c 128,-1,15
 427 72 427 72 427 63.5 c 128,-1,16
 427 55 427 55 420.5 48.5 c 128,-1,17
 414 42 414 42 405 42 c 2,18,-1
 363 42 l 1,19,-1
 357 41 l 2,20,21
 351 40 351 40 347 36 c 0,22,23
 341 30 341 30 341 21 c 0,24,25
 341 7 341 7 352 2 c 0,26,27
 357 -1 357 -1 363 -1 c 2,28,-1
 405 -1 l 2,29,30
 432 -1 432 -1 450.5 18 c 128,-1,31
 469 37 469 37 469 63.5 c 128,-1,32
 469 90 469 90 450.5 108.5 c 128,-1,33
 432 127 432 127 405 127 c 0,34,35
 394 127 394 127 384 124 c 1,36,-1
 384 127 l 2,37,38
 384 156 384 156 372 181 c 128,-1,39
 360 206 360 206 340 224 c 1,40,41
 347 264 347 264 328 300 c 128,-1,42
 309 336 309 336 272 352 c 0,43,44
 243 365 243 365 212 361.5 c 128,-1,45
 181 358 181 358 155.5 340 c 128,-1,46
 130 322 130 322 117 293 c 0,47,48
 103 262 103 262 108 229 c 128,-1,49
 113 196 113 196 134 170 c 1,50,-1
 128 170 l 2,51,52
 93 170 93 170 68 145 c 128,-1,53
 43 120 43 120 43 84.5 c 128,-1,54
 43 49 43 49 68 24 c 128,-1,55
 93 -1 93 -1 128 -1 c 1,56,-1
 134 0 l 2,57,58
 140 2 140 2 144 6 c 0,59,60
 149 11 149 11 149 20.5 c 128,-1,61
 149 30 149 30 144 36 c 0,62,63
 140 40 140 40 134 41 c 2,64,-1
 128 42 l 2,0,1
256 255 m 0,65,66
 227 255 227 255 201.5 243 c 128,-1,67
 176 231 176 231 158 210 c 1,68,69
 150 225 150 225 149.5 242 c 128,-1,70
 149 259 149 259 156 275 c 0,71,72
 168 304 168 304 197 315 c 128,-1,73
 226 326 226 326 255 313 c 0,74,75
 274 304 274 304 286 286.5 c 128,-1,76
 298 269 298 269 299 248 c 1,77,78
 278 255 278 255 256 255 c 0,65,66
289 391 m 0,79,80
 273 398 273 398 253 402 c 1,81,-1
 307 430 l 1,82,-1
 326 368 l 1,83,84
 309 382 309 382 289 391 c 0,79,80
130 374 m 0,85,86
 114 363 114 363 102 349 c 1,87,-1
 105 409 l 1,88,-1
 168 394 l 1,89,90
 148 388 148 388 130 374 c 0,85,86
384 262 m 0,91,92
 381 282 381 282 375 298 c 1,93,-1
 426 266 l 1,94,-1
 382 218 l 1,95,96
 386 239 386 239 384 262 c 0,91,92
65 228 m 0,97,98
 67 210 67 210 73 191 c 1,99,-1
 23 223 l 1,100,-1
 66 271 l 1,101,102
 63 249 63 249 65 228 c 0,97,98
171 -10 m 0,103,104
 173 -16 173 -16 178.5 -19 c 128,-1,105
 184 -22 184 -22 190 -20 c 2,106,-1
 224 -12 l 1,107,-1
 215 -45 l 2,108,109
 213 -51 213 -51 216 -56.5 c 128,-1,110
 219 -62 219 -62 225.5 -64 c 128,-1,111
 232 -66 232 -66 237.5 -62.5 c 128,-1,112
 243 -59 243 -59 244 -53 c 2,113,-1
 253 -19 l 1,114,-1
 278 -44 l 2,115,116
 282 -49 282 -49 288.5 -49 c 128,-1,117
 295 -49 295 -49 299.5 -44.5 c 128,-1,118
 304 -40 304 -40 304 -33.5 c 128,-1,119
 304 -27 304 -27 300 -22 c 2,120,-1
 275 3 l 1,121,-1
 309 11 l 2,122,123
 315 13 315 13 318 18.5 c 128,-1,124
 321 24 321 24 319.5 30 c 128,-1,125
 318 36 318 36 312.5 39 c 128,-1,126
 307 42 307 42 301 41 c 2,127,-1
 267 32 l 1,128,-1
 276 65 l 2,129,130
 278 72 278 72 274.5 77.5 c 128,-1,131
 271 83 271 83 265 84.5 c 128,-1,132
 259 86 259 86 253.5 83 c 128,-1,133
 248 80 248 80 246 73 c 2,134,-1
 238 40 l 1,135,-1
 213 65 l 2,136,137
 209 69 209 69 202 69 c 128,-1,138
 195 69 195 69 191 64.5 c 128,-1,139
 187 60 187 60 187 53.5 c 128,-1,140
 187 47 187 47 191 43 c 2,141,-1
 216 18 l 1,142,-1
 182 9 l 2,143,144
 176 7 176 7 173 2 c 128,-1,145
 170 -3 170 -3 171 -10 c 0,103,104
EndSplineSet
Validated: 41
EndChar

StartChar: P
Encoding: 80 80 18
Width: 512
GlyphClass: 2
Flags: W
LayerCount: 2
Fore
SplineSet
289 391 m 0,0,1
 273 398 273 398 253 402 c 1,2,-1
 307 430 l 1,3,-1
 326 368 l 1,4,5
 309 382 309 382 289 391 c 0,0,1
130 374 m 0,6,7
 114 363 114 363 102 349 c 1,8,-1
 105 409 l 1,9,-1
 168 394 l 1,10,11
 148 388 148 388 130 374 c 0,6,7
384 262 m 0,12,13
 381 282 381 282 375 298 c 1,14,-1
 426 266 l 1,15,-1
 382 218 l 1,16,17
 386 239 386 239 384 262 c 0,12,13
65 228 m 0,18,19
 67 210 67 210 73 191 c 1,20,-1
 23 223 l 1,21,-1
 66 271 l 1,22,23
 63 249 63 249 65 228 c 0,18,19
356 -26 m 0,24,25
 356 -42 356 -42 345 -53 c 128,-1,26
 334 -64 334 -64 319 -64 c 128,-1,27
 304 -64 304 -64 293 -53 c 128,-1,28
 282 -42 282 -42 282 -26 c 128,-1,29
 282 -10 282 -10 301 18 c 0,30,31
 310 31 310 31 319 42 c 1,32,-1
 319 42 l 1,33,-1
 329 30 l 2,34,35
 339 16 339 16 346 3 c 0,36,37
 356 -15 356 -15 356 -26 c 0,24,25
129 -10 m 0,38,39
 127 -3 127 -3 130 2 c 128,-1,40
 133 7 133 7 140 9 c 2,41,-1
 173 18 l 1,42,-1
 148 43 l 2,43,44
 144 47 144 47 144 53.5 c 128,-1,45
 144 60 144 60 148.5 64.5 c 128,-1,46
 153 69 153 69 159.5 69 c 128,-1,47
 166 69 166 69 171 64 c 2,48,-1
 195 40 l 1,49,-1
 204 73 l 2,50,51
 205 80 205 80 210.5 83 c 128,-1,52
 216 86 216 86 222.5 84.5 c 128,-1,53
 229 83 229 83 232 77.5 c 128,-1,54
 235 72 235 72 233 65 c 2,55,-1
 224 32 l 1,56,-1
 258 41 l 2,57,58
 265 42 265 42 270 39 c 128,-1,59
 275 36 275 36 277 30 c 128,-1,60
 279 24 279 24 275.5 18.5 c 128,-1,61
 272 13 272 13 266 11 c 2,62,-1
 232 2 l 1,63,-1
 257 -22 l 2,64,65
 262 -27 262 -27 262 -33.5 c 128,-1,66
 262 -40 262 -40 257.5 -44.5 c 128,-1,67
 253 -49 253 -49 246.5 -49 c 128,-1,68
 240 -49 240 -49 235 -44 c 2,69,-1
 211 -19 l 1,70,-1
 202 -53 l 2,71,72
 200 -59 200 -59 194.5 -62.5 c 128,-1,73
 189 -66 189 -66 183 -64 c 128,-1,74
 177 -62 177 -62 173.5 -56.5 c 128,-1,75
 170 -51 170 -51 172 -45 c 2,76,-1
 181 -12 l 1,77,-1
 147 -20 l 2,78,79
 141 -22 141 -22 135.5 -19 c 128,-1,80
 130 -16 130 -16 129 -10 c 0,38,39
405 127 m 0,81,82
 394 127 394 127 384 124 c 1,83,-1
 384 127 l 2,84,85
 384 156 384 156 372 181 c 128,-1,86
 360 206 360 206 340 224 c 1,87,88
 347 264 347 264 328 300 c 128,-1,89
 309 336 309 336 272 352 c 0,90,91
 243 365 243 365 212 361.5 c 128,-1,92
 181 358 181 358 155.5 340 c 128,-1,93
 130 322 130 322 117 293 c 0,94,95
 103 262 103 262 108 229 c 128,-1,96
 113 196 113 196 134 170 c 1,97,-1
 128 170 l 2,98,99
 93 170 93 170 68 145 c 128,-1,100
 43 120 43 120 43 85 c 0,101,102
 43 67 43 67 50 51 c 128,-1,103
 57 35 57 35 70 23 c 2,104,-1
 74 19 l 2,105,106
 80 16 80 16 85 16 c 0,107,108
 93 16 93 16 100 23 c 0,109,110
 109 32 109 32 106 44 c 0,111,112
 104 49 104 49 100 53 c 1,113,-1
 100 53 l 1,114,115
 85 66 85 66 85 84 c 128,-1,116
 85 102 85 102 97.5 114.5 c 128,-1,117
 110 127 110 127 128 127 c 2,118,-1
 171 127 l 1,119,120
 171 163 171 163 196 188 c 128,-1,121
 221 213 221 213 256 213 c 128,-1,122
 291 213 291 213 316 188 c 128,-1,123
 341 163 341 163 341 127 c 2,124,-1
 341 85 l 1,125,-1
 405 85 l 2,126,127
 414 85 414 85 420.5 78.5 c 128,-1,128
 427 72 427 72 427 63.5 c 128,-1,129
 427 55 427 55 420.5 48.5 c 128,-1,130
 414 42 414 42 405 42 c 2,131,-1
 384 42 l 1,132,-1
 378 41 l 2,133,134
 372 40 372 40 368 36 c 0,135,136
 363 30 363 30 363 21 c 0,137,138
 363 7 363 7 373 2 c 0,139,140
 379 -1 379 -1 384 -1 c 2,141,-1
 405 -1 l 2,142,143
 432 -1 432 -1 450.5 18 c 128,-1,144
 469 37 469 37 469 63.5 c 128,-1,145
 469 90 469 90 450.5 108.5 c 128,-1,146
 432 127 432 127 405 127 c 0,81,82
256 255 m 0,147,148
 227 255 227 255 201.5 243 c 128,-1,149
 176 231 176 231 158 210 c 1,150,151
 150 225 150 225 149.5 242 c 128,-1,152
 149 259 149 259 156 275 c 0,153,154
 168 304 168 304 197 315 c 128,-1,155
 226 326 226 326 255 313 c 0,156,157
 274 304 274 304 286 286.5 c 128,-1,158
 298 269 298 269 299 248 c 1,159,160
 278 255 278 255 256 255 c 0,147,148
EndSplineSet
Validated: 37
EndChar

StartChar: Q
Encoding: 81 81 19
Width: 512
GlyphClass: 2
Flags: W
LayerCount: 2
Fore
SplineSet
128 107 m 2,0,1
 99 107 99 107 74.5 121 c 128,-1,2
 50 135 50 135 35.5 159.5 c 128,-1,3
 21 184 21 184 21 213 c 128,-1,4
 21 242 21 242 35.5 266.5 c 128,-1,5
 50 291 50 291 74.5 305.5 c 128,-1,6
 99 320 99 320 128 320 c 1,7,8
 144 358 144 358 178.5 381.5 c 128,-1,9
 213 405 213 405 256 405 c 0,10,11
 292 405 292 405 323 388 c 128,-1,12
 354 371 354 371 373 341.5 c 128,-1,13
 392 312 392 312 395 277 c 1,14,-1
 405 277 l 2,15,16
 441 277 441 277 466 252 c 128,-1,17
 491 227 491 227 491 192 c 128,-1,18
 491 157 491 157 466 132 c 128,-1,19
 441 107 441 107 405 107 c 2,20,-1
 384 107 l 2,21,22
 375 107 375 107 369 113 c 128,-1,23
 363 119 363 119 363 128 c 128,-1,24
 363 137 363 137 369 143 c 128,-1,25
 375 149 375 149 384 149 c 2,26,-1
 405 149 l 2,27,28
 423 149 423 149 435.5 161.5 c 128,-1,29
 448 174 448 174 448 192 c 128,-1,30
 448 210 448 210 435.5 222.5 c 128,-1,31
 423 235 423 235 405 235 c 2,32,-1
 363 235 l 1,33,-1
 363 256 l 2,34,35
 363 285 363 285 348.5 309.5 c 128,-1,36
 334 334 334 334 309.5 348.5 c 128,-1,37
 285 363 285 363 256 363 c 0,38,39
 216 363 216 363 186.5 337.5 c 128,-1,40
 157 312 157 312 151 273 c 1,41,42
 139 277 139 277 128 277 c 0,43,44
 101 277 101 277 82.5 258.5 c 128,-1,45
 64 240 64 240 64 213.5 c 128,-1,46
 64 187 64 187 82.5 168 c 128,-1,47
 101 149 101 149 128 149 c 2,48,-1
 149 149 l 2,49,50
 158 149 158 149 164.5 143 c 128,-1,51
 171 137 171 137 171 128 c 128,-1,52
 171 119 171 119 164.5 113 c 128,-1,53
 158 107 158 107 149 107 c 2,54,-1
 128 107 l 2,0,1
256 213 m 1,55,-1
 320 213 l 1,56,-1
 277 128 l 1,57,-1
 320 128 l 1,58,-1
 240 -21 l 1,59,-1
 256 85 l 1,60,-1
 203 85 l 1,61,-1
 256 213 l 1,55,-1
EndSplineSet
Validated: 1
EndChar

StartChar: R
Encoding: 82 82 20
Width: 512
GlyphClass: 2
Flags: W
LayerCount: 2
Fore
SplineSet
96 158 m 1,0,1
 104 154 104 154 106 145 c 128,-1,2
 108 136 108 136 103.5 128.5 c 128,-1,3
 99 121 99 121 91 119 c 128,-1,4
 83 117 83 117 75 121 c 1,5,-1
 75 121 l 1,6,7
 50 135 50 135 35.5 159.5 c 128,-1,8
 21 184 21 184 21 213 c 128,-1,9
 21 242 21 242 35.5 266.5 c 128,-1,10
 50 291 50 291 74.5 305.5 c 128,-1,11
 99 320 99 320 128 320 c 1,12,13
 144 358 144 358 178.5 381.5 c 128,-1,14
 213 405 213 405 256 405 c 0,15,16
 292 405 292 405 323 388 c 128,-1,17
 354 371 354 371 373 341.5 c 128,-1,18
 392 312 392 312 395 277 c 1,19,-1
 405 277 l 2,20,21
 441 277 441 277 466 252 c 128,-1,22
 491 227 491 227 491 192 c 128,-1,23
 491 157 491 157 466 132 c 128,-1,24
 441 107 441 107 405 107 c 0,25,26
 396 107 396 107 390 113 c 128,-1,27
 384 119 384 119 384 128 c 128,-1,28
 384 137 384 137 390 143 c 128,-1,29
 396 149 396 149 405 149 c 0,30,31
 423 149 423 149 435.5 161.5 c 128,-1,32
 448 174 448 174 448 192 c 128,-1,33
 448 210 448 210 435.5 222.5 c 128,-1,34
 423 235 423 235 405 235 c 2,35,-1
 363 235 l 1,36,-1
 363 256 l 2,37,38
 363 285 363 285 348.5 309.5 c 128,-1,39
 334 334 334 334 309.5 348.5 c 128,-1,40
 285 363 285 363 256 363 c 0,41,42
 216 363 216 363 186.5 337.5 c 128,-1,43
 157 312 157 312 151 273 c 1,44,45
 139 277 139 277 128 277 c 0,46,47
 101 277 101 277 82.5 258.5 c 128,-1,48
 64 240 64 240 64 213 c 0,49,50
 64 196 64 196 72.5 181 c 128,-1,51
 81 166 81 166 96 158 c 1,52,-1
 96 158 l 1,0,1
203 213 m 1,53,-1
 267 213 l 1,54,-1
 224 128 l 1,55,-1
 267 128 l 1,56,-1
 187 -21 l 1,57,-1
 203 85 l 1,58,-1
 149 85 l 1,59,-1
 203 213 l 1,53,-1
373 50 m 0,60,61
 373 29 373 29 359 14.5 c 128,-1,62
 345 0 345 0 325 0 c 128,-1,63
 305 0 305 0 291 14.5 c 128,-1,64
 277 29 277 29 277 49.5 c 128,-1,65
 277 70 277 70 301 107 c 0,66,67
 313 125 313 125 325 139 c 1,68,-1
 325 139 l 1,69,-1
 338 123 l 2,70,71
 352 104 352 104 361 87 c 0,72,73
 373 64 373 64 373 50 c 0,60,61
EndSplineSet
Validated: 37
EndChar

StartChar: S
Encoding: 83 83 21
Width: 512
GlyphClass: 2
Flags: W
LayerCount: 2
Fore
SplineSet
405 128 m 0,0,1
 394 128 394 128 384 124 c 1,2,-1
 384 128 l 2,3,4
 384 156 384 156 372 181.5 c 128,-1,5
 360 207 360 207 340 225 c 1,6,7
 347 264 347 264 328 300 c 128,-1,8
 309 336 309 336 272 353 c 0,9,10
 243 366 243 366 212 362.5 c 128,-1,11
 181 359 181 359 155.5 340.5 c 128,-1,12
 130 322 130 322 117 293 c 0,13,14
 103 262 103 262 108 229 c 128,-1,15
 113 196 113 196 134 171 c 1,16,-1
 128 171 l 2,17,18
 93 171 93 171 68 146 c 128,-1,19
 43 121 43 121 43 85.5 c 128,-1,20
 43 50 43 50 68 25 c 128,-1,21
 93 0 93 0 128 0 c 2,22,-1
 149 0 l 1,23,-1
 155 1 l 2,24,25
 161 2 161 2 165 6 c 0,26,27
 171 12 171 12 171 21.5 c 128,-1,28
 171 31 171 31 165 36 c 0,29,30
 161 40 161 40 155 42 c 2,31,-1
 149 43 l 1,32,-1
 128 43 l 2,33,34
 110 43 110 43 97.5 55.5 c 128,-1,35
 85 68 85 68 85 85.5 c 128,-1,36
 85 103 85 103 97.5 115.5 c 128,-1,37
 110 128 110 128 128 128 c 2,38,-1
 171 128 l 1,39,40
 171 163 171 163 196 188 c 128,-1,41
 221 213 221 213 256 213 c 128,-1,42
 291 213 291 213 316 188 c 128,-1,43
 341 163 341 163 341 128 c 2,44,-1
 341 85 l 1,45,-1
 405 85 l 2,46,47
 414 85 414 85 420.5 79 c 128,-1,48
 427 73 427 73 427 64 c 128,-1,49
 427 55 427 55 420.5 49 c 128,-1,50
 414 43 414 43 405 43 c 2,51,-1
 363 43 l 1,52,-1
 357 42 l 2,53,54
 351 40 351 40 347 36 c 0,55,56
 341 31 341 31 341 21.5 c 128,-1,57
 341 12 341 12 347 6 c 0,58,59
 351 2 351 2 357 1 c 2,60,-1
 363 0 l 1,61,-1
 405 0 l 2,62,63
 432 0 432 0 450.5 18.5 c 128,-1,64
 469 37 469 37 469 64 c 128,-1,65
 469 91 469 91 450.5 109.5 c 128,-1,66
 432 128 432 128 405 128 c 0,0,1
256 256 m 0,67,68
 227 256 227 256 201.5 244 c 128,-1,69
 176 232 176 232 158 211 c 1,70,71
 150 225 150 225 149.5 242.5 c 128,-1,72
 149 260 149 260 156 276 c 0,73,74
 168 304 168 304 197 315 c 128,-1,75
 226 326 226 326 255 314 c 0,76,77
 274 305 274 305 286 287.5 c 128,-1,78
 298 270 298 270 299 249 c 1,79,80
 278 256 278 256 256 256 c 0,67,68
289 392 m 0,81,82
 271 399 271 399 253 403 c 1,83,-1
 307 431 l 1,84,-1
 326 369 l 1,85,86
 309 382 309 382 289 392 c 0,81,82
130 375 m 0,87,88
 114 364 114 364 102 349 c 1,89,-1
 105 409 l 1,90,-1
 168 395 l 1,91,92
 148 388 148 388 130 375 c 0,87,88
384 262 m 0,93,94
 381 282 381 282 375 299 c 1,95,-1
 426 267 l 1,96,-1
 382 219 l 1,97,98
 386 239 386 239 384 262 c 0,93,94
65 228 m 0,99,100
 67 210 67 210 73 192 c 1,101,-1
 23 224 l 1,102,-1
 66 271 l 1,103,104
 63 249 63 249 65 228 c 0,99,100
252 128 m 1,105,-1
 304 128 l 1,106,-1
 269 58 l 1,107,-1
 304 58 l 1,108,-1
 239 -64 l 1,109,-1
 252 23 l 1,110,-1
 208 23 l 1,111,-1
 252 128 l 1,105,-1
EndSplineSet
Validated: 41
EndChar

StartChar: T
Encoding: 84 84 22
Width: 512
GlyphClass: 2
Flags: W
LayerCount: 2
Fore
SplineSet
85 235 m 2,0,1
 76 235 76 235 70 241 c 128,-1,2
 64 247 64 247 64 256 c 128,-1,3
 64 265 64 265 70 271 c 128,-1,4
 76 277 76 277 85 277 c 2,5,-1
 256 277 l 2,6,7
 274 277 274 277 286.5 289.5 c 128,-1,8
 299 302 299 302 299 320 c 128,-1,9
 299 338 299 338 286.5 350.5 c 128,-1,10
 274 363 274 363 256 363 c 128,-1,11
 238 363 238 363 226 350 c 0,12,13
 220 344 220 344 211 344 c 128,-1,14
 202 344 202 344 195.5 350 c 128,-1,15
 189 356 189 356 189 365 c 128,-1,16
 189 374 189 374 196 380 c 0,17,18
 221 405 221 405 256 405 c 128,-1,19
 291 405 291 405 316 380 c 128,-1,20
 341 355 341 355 341 320 c 128,-1,21
 341 285 341 285 316 260 c 128,-1,22
 291 235 291 235 256 235 c 2,23,-1
 85 235 l 2,0,1
405 192 m 2,24,25
 414 192 414 192 420.5 198 c 128,-1,26
 427 204 427 204 427 213 c 128,-1,27
 427 222 427 222 420.5 228.5 c 128,-1,28
 414 235 414 235 405 235 c 128,-1,29
 396 235 396 235 390 228.5 c 128,-1,30
 384 222 384 222 375 222 c 128,-1,31
 366 222 366 222 360 228.5 c 128,-1,32
 354 235 354 235 354 243.5 c 128,-1,33
 354 252 354 252 360 259 c 0,34,35
 379 277 379 277 405.5 277 c 128,-1,36
 432 277 432 277 450.5 258.5 c 128,-1,37
 469 240 469 240 469 213.5 c 128,-1,38
 469 187 469 187 450.5 168 c 128,-1,39
 432 149 432 149 405 149 c 2,40,-1
 107 149 l 2,41,42
 98 149 98 149 91.5 155.5 c 128,-1,43
 85 162 85 162 85 171 c 128,-1,44
 85 180 85 180 91.5 186 c 128,-1,45
 98 192 98 192 107 192 c 2,46,-1
 405 192 l 2,24,25
384 64 m 2,47,-1
 85 64 l 2,48,49
 76 64 76 64 70 70 c 128,-1,50
 64 76 64 76 64 85 c 128,-1,51
 64 94 64 94 70 100.5 c 128,-1,52
 76 107 76 107 85 107 c 2,53,-1
 384 107 l 2,54,55
 411 107 411 107 429.5 88 c 128,-1,56
 448 69 448 69 448 42.5 c 128,-1,57
 448 16 448 16 429.5 -2.5 c 128,-1,58
 411 -21 411 -21 384.5 -21 c 128,-1,59
 358 -21 358 -21 339 -3 c 0,60,61
 333 4 333 4 333 12.5 c 128,-1,62
 333 21 333 21 339 27.5 c 128,-1,63
 345 34 345 34 354 34 c 128,-1,64
 363 34 363 34 369 27.5 c 128,-1,65
 375 21 375 21 384 21 c 128,-1,66
 393 21 393 21 399 27.5 c 128,-1,67
 405 34 405 34 405 43 c 128,-1,68
 405 52 405 52 399 58 c 128,-1,69
 393 64 393 64 384 64 c 2,47,-1
EndSplineSet
Validated: 1
EndChar

StartChar: U
Encoding: 85 85 23
Width: 512
GlyphClass: 2
Flags: W
LayerCount: 2
Fore
SplineSet
128 43 m 2,0,1
 99 43 99 43 74.5 57 c 128,-1,2
 50 71 50 71 35.5 95.5 c 128,-1,3
 21 120 21 120 21 149 c 128,-1,4
 21 178 21 178 35.5 202.5 c 128,-1,5
 50 227 50 227 74.5 241.5 c 128,-1,6
 99 256 99 256 128 256 c 1,7,8
 144 294 144 294 178.5 317.5 c 128,-1,9
 213 341 213 341 256 341 c 0,10,11
 292 341 292 341 323 324 c 128,-1,12
 354 307 354 307 373 277.5 c 128,-1,13
 392 248 392 248 395 213 c 1,14,-1
 405 213 l 2,15,16
 441 213 441 213 466 188 c 128,-1,17
 491 163 491 163 491 128 c 128,-1,18
 491 93 491 93 466 68 c 128,-1,19
 441 43 441 43 405 43 c 2,20,-1
 128 43 l 2,0,1
405 171 m 2,21,-1
 363 171 l 1,22,-1
 363 192 l 2,23,24
 363 221 363 221 348.5 245.5 c 128,-1,25
 334 270 334 270 309.5 284.5 c 128,-1,26
 285 299 285 299 256 299 c 0,27,28
 216 299 216 299 186.5 273.5 c 128,-1,29
 157 248 157 248 151 209 c 1,30,31
 139 213 139 213 128 213 c 0,32,33
 101 213 101 213 82.5 194.5 c 128,-1,34
 64 176 64 176 64 149.5 c 128,-1,35
 64 123 64 123 82.5 104 c 128,-1,36
 101 85 101 85 128 85 c 2,37,-1
 405 85 l 2,38,39
 423 85 423 85 435.5 97.5 c 128,-1,40
 448 110 448 110 448 128 c 128,-1,41
 448 146 448 146 435.5 158.5 c 128,-1,42
 423 171 423 171 405 171 c 2,21,-1
277 192 m 1,43,-1
 235 192 l 1,44,-1
 235 277 l 1,45,-1
 277 277 l 1,46,-1
 277 192 l 1,43,-1
277 107 m 1,47,-1
 235 107 l 1,48,-1
 235 149 l 1,49,-1
 277 149 l 1,50,-1
 277 107 l 1,47,-1
EndSplineSet
Validated: 1
EndChar

StartChar: V
Encoding: 86 86 24
Width: 512
GlyphClass: 2
Flags: W
LayerCount: 2
Fore
SplineSet
256 299 m 256,0,1
 227 299 227 299 202.5 284.5 c 128,-1,2
 178 270 178 270 163.5 245.5 c 128,-1,3
 149 221 149 221 149 192 c 128,-1,4
 149 163 149 163 163.5 138.5 c 128,-1,5
 178 114 178 114 202.5 99.5 c 128,-1,6
 227 85 227 85 256 85 c 128,-1,7
 285 85 285 85 309.5 99.5 c 128,-1,8
 334 114 334 114 348.5 138.5 c 128,-1,9
 363 163 363 163 363 192 c 128,-1,10
 363 221 363 221 348.5 245.5 c 128,-1,11
 334 270 334 270 309.5 284.5 c 128,-1,12
 285 299 285 299 256 299 c 256,0,1
256 128 m 256,13,14
 229 128 229 128 210.5 146.5 c 128,-1,15
 192 165 192 165 192 192 c 128,-1,16
 192 219 192 219 210.5 237.5 c 128,-1,17
 229 256 229 256 256 256 c 128,-1,18
 283 256 283 256 301.5 237.5 c 128,-1,19
 320 219 320 219 320 192 c 128,-1,20
 320 165 320 165 301.5 146.5 c 128,-1,21
 283 128 283 128 256 128 c 256,13,14
256 405 m 1,22,-1
 307 332 l 1,23,24
 282 341 282 341 256 341 c 128,-1,25
 230 341 230 341 205 332 c 1,26,-1
 256 405 l 1,22,-1
71 299 m 1,27,-1
 160 306 l 1,28,29
 140 289 140 289 127 267 c 128,-1,30
 114 245 114 245 109 218 c 1,31,-1
 71 299 l 1,27,-1
72 85 m 1,32,-1
 109 166 l 1,33,34
 114 140 114 140 127 117.5 c 128,-1,35
 140 95 140 95 160 77 c 1,36,-1
 72 85 l 1,32,-1
256 -21 m 1,37,-1
 205 52 l 1,38,39
 230 43 230 43 255.5 43 c 128,-1,40
 281 43 281 43 307 52 c 1,41,-1
 256 -21 l 1,37,-1
405 171 m 1,42,-1
 405 299 l 1,43,-1
 448 299 l 1,44,-1
 448 171 l 1,45,-1
 405 171 l 1,42,-1
405 85 m 1,46,-1
 405 128 l 1,47,-1
 448 128 l 1,48,-1
 448 85 l 1,49,-1
 405 85 l 1,46,-1
EndSplineSet
Validated: 9
EndChar

StartChar: W
Encoding: 87 87 25
Width: 512
GlyphClass: 2
Flags: W
LayerCount: 2
Fore
SplineSet
256 363 m 0,0,1
 206 363 206 363 166.5 333.5 c 128,-1,2
 127 304 127 304 113 256 c 1,3,-1
 399 256 l 1,4,5
 385 303 385 303 345 333 c 128,-1,6
 305 363 305 363 256 363 c 0,0,1
256 405 m 256,7,8
 308 405 308 405 352 379.5 c 128,-1,9
 396 354 396 354 422 309.5 c 128,-1,10
 448 265 448 265 448 213 c 1,11,-1
 277 213 l 1,12,-1
 277 43 l 2,13,14
 277 16 277 16 258.5 -2.5 c 128,-1,15
 240 -21 240 -21 213.5 -21 c 128,-1,16
 187 -21 187 -21 168 -2.5 c 128,-1,17
 149 16 149 16 149 43 c 2,18,-1
 149 64 l 1,19,-1
 192 64 l 1,20,-1
 192 43 l 2,21,22
 192 34 192 34 198 27.5 c 128,-1,23
 204 21 204 21 213 21 c 128,-1,24
 222 21 222 21 228.5 27.5 c 128,-1,25
 235 34 235 34 235 43 c 2,26,-1
 235 213 l 1,27,-1
 64 213 l 1,28,29
 64 265 64 265 90 309.5 c 128,-1,30
 116 354 116 354 160 379.5 c 128,-1,31
 204 405 204 405 256 405 c 256,7,8
EndSplineSet
Validated: 1
EndChar

StartChar: X
Encoding: 88 88 26
Width: 512
GlyphClass: 2
Flags: W
LayerCount: 2
Fore
SplineSet
64 192 m 2,0,-1
 149 192 l 1,1,2
 149 221 149 221 163.5 245.5 c 128,-1,3
 178 270 178 270 202.5 284.5 c 128,-1,4
 227 299 227 299 256 299 c 128,-1,5
 285 299 285 299 309.5 284.5 c 128,-1,6
 334 270 334 270 348.5 245.5 c 128,-1,7
 363 221 363 221 363 192 c 1,8,-1
 448 192 l 2,9,10
 457 192 457 192 463 186 c 128,-1,11
 469 180 469 180 469 171 c 128,-1,12
 469 162 469 162 463 155.5 c 128,-1,13
 457 149 457 149 448 149 c 2,14,-1
 64 149 l 2,15,16
 55 149 55 149 49 155.5 c 128,-1,17
 43 162 43 162 43 171 c 128,-1,18
 43 180 43 180 49 186 c 128,-1,19
 55 192 55 192 64 192 c 2,0,-1
320 192 m 1,20,21
 320 219 320 219 301.5 237.5 c 128,-1,22
 283 256 283 256 256 256 c 128,-1,23
 229 256 229 256 210.5 237.5 c 128,-1,24
 192 219 192 219 192 192 c 1,25,-1
 320 192 l 1,20,21
256 405 m 1,26,-1
 307 332 l 1,27,28
 282 341 282 341 256 341 c 128,-1,29
 230 341 230 341 205 332 c 1,30,-1
 256 405 l 1,26,-1
71 299 m 1,31,-1
 160 306 l 1,32,33
 140 289 140 289 127 267 c 128,-1,34
 114 245 114 245 109 218 c 1,35,-1
 71 299 l 1,31,-1
441 299 m 1,36,-1
 403 218 l 1,37,38
 398 244 398 244 385 267 c 128,-1,39
 372 290 372 290 352 306 c 1,40,-1
 441 299 l 1,36,-1
271 6 m 2,41,-1
 337 73 l 2,42,43
 344 79 344 79 344 88 c 128,-1,44
 344 97 344 97 337.5 103 c 128,-1,45
 331 109 331 109 322.5 109 c 128,-1,46
 314 109 314 109 307 103 c 2,47,-1
 256 51 l 1,48,-1
 205 103 l 2,49,50
 198 109 198 109 189.5 109 c 128,-1,51
 181 109 181 109 174.5 103 c 128,-1,52
 168 97 168 97 168 88 c 128,-1,53
 168 79 168 79 175 73 c 2,54,-1
 241 6 l 2,55,56
 248 0 248 0 256 0 c 128,-1,57
 264 0 264 0 271 6 c 2,41,-1
EndSplineSet
Validated: 9
EndChar

StartChar: Y
Encoding: 89 89 27
Width: 512
GlyphClass: 2
Flags: W
LayerCount: 2
Fore
SplineSet
64 192 m 2,0,-1
 149 192 l 1,1,2
 149 221 149 221 163.5 245.5 c 128,-1,3
 178 270 178 270 202.5 284.5 c 128,-1,4
 227 299 227 299 256 299 c 128,-1,5
 285 299 285 299 309.5 284.5 c 128,-1,6
 334 270 334 270 348.5 245.5 c 128,-1,7
 363 221 363 221 363 192 c 1,8,-1
 448 192 l 2,9,10
 457 192 457 192 463 186 c 128,-1,11
 469 180 469 180 469 171 c 128,-1,12
 469 162 469 162 463 155.5 c 128,-1,13
 457 149 457 149 448 149 c 2,14,-1
 64 149 l 2,15,16
 55 149 55 149 49 155.5 c 128,-1,17
 43 162 43 162 43 171 c 128,-1,18
 43 180 43 180 49 186 c 128,-1,19
 55 192 55 192 64 192 c 2,0,-1
320 192 m 1,20,21
 320 219 320 219 301.5 237.5 c 128,-1,22
 283 256 283 256 256 256 c 128,-1,23
 229 256 229 256 210.5 237.5 c 128,-1,24
 192 219 192 219 192 192 c 1,25,-1
 320 192 l 1,20,21
256 405 m 1,26,-1
 307 332 l 1,27,28
 282 341 282 341 256 341 c 128,-1,29
 230 341 230 341 205 332 c 1,30,-1
 256 405 l 1,26,-1
71 299 m 1,31,-1
 160 306 l 1,32,33
 140 289 140 289 127 267 c 128,-1,34
 114 245 114 245 109 218 c 1,35,-1
 71 299 l 1,31,-1
441 299 m 1,36,-1
 403 218 l 1,37,38
 398 244 398 244 385 267 c 128,-1,39
 372 290 372 290 352 306 c 1,40,-1
 441 299 l 1,36,-1
271 100 m 2,41,-1
 337 34 l 2,42,43
 344 28 344 28 344 19 c 128,-1,44
 344 10 344 10 337.5 4 c 128,-1,45
 331 -2 331 -2 322.5 -2 c 128,-1,46
 314 -2 314 -2 307 4 c 2,47,-1
 256 55 l 1,48,-1
 205 4 l 2,49,50
 198 -2 198 -2 189.5 -2 c 128,-1,51
 181 -2 181 -2 174.5 4 c 128,-1,52
 168 10 168 10 168 19 c 128,-1,53
 168 28 168 28 175 34 c 2,54,-1
 241 100 l 2,55,56
 248 107 248 107 256 107 c 128,-1,57
 264 107 264 107 271 100 c 2,41,-1
EndSplineSet
Validated: 1
EndChar

StartChar: Z
Encoding: 90 90 28
Width: 512
GlyphClass: 2
Flags: W
LayerCount: 2
Fore
SplineSet
351 247 m 1,0,-1
 277 291 l 1,1,-1
 277 339 l 1,2,-1
 314 375 l 1,3,-1
 284 405 l 1,4,-1
 256 378 l 1,5,-1
 228 405 l 1,6,-1
 198 375 l 1,7,-1
 235 339 l 1,8,-1
 235 291 l 1,9,-1
 181 260 l 1,10,-1
 139 284 l 1,11,-1
 126 334 l 1,12,-1
 85 323 l 1,13,-1
 95 285 l 1,14,-1
 58 275 l 1,15,-1
 69 234 l 1,16,-1
 118 247 l 1,17,-1
 161 223 l 1,18,-1
 161 161 l 1,19,-1
 118 137 l 1,20,-1
 69 150 l 1,21,-1
 58 109 l 1,22,-1
 95 99 l 1,23,-1
 85 61 l 1,24,-1
 127 50 l 1,25,-1
 140 100 l 1,26,-1
 182 124 l 1,27,-1
 235 93 l 1,28,-1
 235 45 l 1,29,-1
 198 9 l 1,30,-1
 228 -21 l 1,31,-1
 256 6 l 1,32,-1
 284 -21 l 1,33,-1
 314 9 l 1,34,-1
 277 45 l 1,35,-1
 277 93 l 1,36,-1
 351 136 l 1,37,-1
 351 247 l 1,0,-1
203 223 m 1,38,-1
 256 254 l 1,39,-1
 309 223 l 1,40,-1
 309 161 l 1,41,-1
 256 130 l 1,42,-1
 203 161 l 1,43,-1
 203 223 l 1,38,-1
405 171 m 1,44,-1
 405 299 l 1,45,-1
 448 299 l 1,46,-1
 448 171 l 1,47,-1
 405 171 l 1,44,-1
405 85 m 1,48,-1
 405 128 l 1,49,-1
 448 128 l 1,50,-1
 448 85 l 1,51,-1
 405 85 l 1,48,-1
EndSplineSet
Validated: 9
EndChar

StartChar: bracketleft
Encoding: 91 91 29
Width: 512
GlyphClass: 2
Flags: W
LayerCount: 2
Fore
SplineSet
256 384 m 128,-1,1
 260 384 260 384 263.5 381 c 128,-1,2
 267 378 267 378 267 373 c 2,3,-1
 267 303 l 1,4,5
 278 294 278 294 286 269 c 1,6,-1
 315 296 l 1,7,-1
 315 327 l 2,8,9
 315 332 315 332 318 335 c 2,10,-1
 355 370 l 2,11,12
 358 373 358 373 362.5 373 c 128,-1,13
 367 373 367 373 370 370 c 128,-1,14
 373 367 373 367 373 362.5 c 128,-1,15
 373 358 373 358 370 355 c 2,16,-1
 336 323 l 1,17,-1
 336 292 l 2,18,19
 336 287 336 287 333 284 c 2,20,-1
 295 248 l 2,21,22
 294 247 294 247 291 246 c 0,23,24
 292 240 292 240 293 234 c 1,25,-1
 447 213 l 1,26,27
 452 195 452 195 436.5 177.5 c 128,-1,28
 421 160 421 160 375 160 c 0,29,30
 315 160 315 160 294 206 c 1,31,32
 294 190 294 190 293 176 c 1,33,-1
 351 121 l 2,34,35
 355 118 355 118 355 113 c 0,36,37
 355 112 355 112 354 111 c 2,38,-1
 347 73 l 1,39,-1
 378 59 l 2,40,41
 384 56 384 56 384 49 c 0,42,43
 384 45 384 45 381 41.5 c 128,-1,44
 378 38 378 38 373 38 c 0,45,46
 371 38 371 38 369 40 c 2,47,48
 369 40 369 40 359 44.5 c 128,-1,49
 349 49 349 49 340 53 c 2,50,-1
 330 58 l 2,51,52
 324 61 324 61 324 67 c 0,53,54
 324 68 324 68 324 70 c 2,55,-1
 332 109 l 1,56,-1
 288 151 l 1,57,58
 286 141 286 141 282 133 c 1,59,-1
 303 109 l 2,60,61
 305 106 305 106 305 102 c 0,62,63
 305 100 305 100 305 99 c 2,64,65
 305 99 305 99 301.5 89 c 128,-1,66
 298 79 298 79 295 70 c 2,67,-1
 291 60 l 1,68,-1
 320 17 l 2,69,70
 322 14 322 14 322 11 c 0,71,72
 322 6 322 6 318.5 3 c 128,-1,73
 315 0 315 0 311 0 c 0,74,75
 305 0 305 0 302 5 c 2,76,-1
 271 52 l 2,77,78
 269 55 269 55 269 58 c 0,79,80
 269 60 269 60 269 62 c 2,81,82
 269 62 269 62 272.5 71.5 c 128,-1,83
 276 81 276 81 279 90 c 2,84,-1
 283 100 l 1,85,-1
 271 113 l 1,86,87
 264 106 264 106 256 106 c 128,-1,88
 248 106 248 106 241 113 c 1,89,-1
 229 100 l 1,90,-1
 243 62 l 2,91,92
 243 60 243 60 243 58 c 0,93,94
 243 55 243 55 241 52 c 2,95,96
 241 52 241 52 233.5 40.5 c 128,-1,97
 226 29 226 29 218 17 c 2,98,-1
 210 5 l 2,99,100
 207 0 207 0 201 0 c 0,101,102
 197 0 197 0 193.5 3 c 128,-1,103
 190 6 190 6 190 11 c 0,104,105
 190 14 190 14 192 17 c 2,106,107
 192 17 192 17 199 27.5 c 128,-1,108
 206 38 206 38 213 49 c 2,109,-1
 221 60 l 1,110,-1
 207 99 l 2,111,112
 207 100 207 100 207 102 c 0,113,114
 207 106 207 106 209 109 c 2,115,116
 209 109 209 109 214.5 115 c 128,-1,117
 220 121 220 121 225 127 c 2,118,-1
 230 133 l 1,119,120
 226 142 226 142 224 151 c 1,121,-1
 180 109 l 1,122,-1
 188 70 l 2,123,124
 188 68 188 68 188 67 c 0,125,126
 188 61 188 61 182 58 c 2,127,-1
 143 40 l 2,128,129
 141 38 141 38 139 38 c 0,130,131
 134 38 134 38 131 41.5 c 128,-1,132
 128 45 128 45 128 49 c 0,133,134
 128 56 128 56 134 59 c 2,135,-1
 165 73 l 1,136,-1
 158 111 l 2,137,138
 157 112 157 112 157 113 c 0,139,140
 157 118 157 118 161 121 c 2,141,-1
 219 176 l 1,142,143
 218 191 218 191 218 206 c 1,144,145
 198 160 198 160 137 160 c 0,146,147
 91 160 91 160 75.5 177.5 c 128,-1,148
 60 195 60 195 65 213 c 1,149,-1
 219 234 l 1,150,151
 220 240 220 240 221 246 c 0,152,153
 218 247 218 247 217 248 c 2,154,-1
 179 284 l 2,155,156
 176 287 176 287 176 292 c 2,157,-1
 176 323 l 1,158,-1
 142 355 l 2,159,160
 139 358 139 358 139 362.5 c 128,-1,161
 139 367 139 367 142 370 c 128,-1,162
 145 373 145 373 149.5 373 c 128,-1,163
 154 373 154 373 157 370 c 2,164,165
 157 370 157 370 166 361.5 c 128,-1,166
 175 353 175 353 185 344 c 2,167,-1
 194 335 l 2,168,169
 197 332 197 332 197 327 c 2,170,171
 197 327 197 327 197 319.5 c 128,-1,172
 197 312 197 312 197 304 c 2,173,-1
 197 296 l 1,174,-1
 226 269 l 1,175,176
 234 294 234 294 245 303 c 1,177,-1
 245 373 l 2,178,179
 245 378 245 378 248.5 381 c 128,-1,0
 252 384 252 384 256 384 c 128,-1,1
89 194 m 1,180,181
 101 181 101 181 137 181 c 256,182,183
 173 181 173 181 190 202 c 0,184,185
 193 205 193 205 196 209 c 1,186,-1
 89 195 l 1,187,188
 89 195 89 195 89 194 c 1,189,-1
 89 194 l 1,180,181
423 194 m 0,190,191
 423 195 423 195 423 195 c 1,192,193
 417 196 417 196 405.5 197.5 c 128,-1,194
 394 199 394 199 371 202 c 128,-1,195
 348 205 348 205 332 207 c 128,-1,196
 316 209 316 209 316 209 c 1,197,198
 319 205 319 205 322 202 c 0,199,200
 339 181 339 181 375 181 c 256,201,202
 411 181 411 181 423 194 c 0,190,191
273 206 m 1,203,204
 273 169 273 169 263 143 c 0,205,206
 260 134 260 134 256 129 c 1,207,208
 252 134 252 134 249 143 c 0,209,210
 239 169 239 169 239 206.5 c 128,-1,211
 239 244 239 244 249 270 c 0,212,213
 252 279 252 279 256 284 c 1,214,215
 260 279 260 279 263 270 c 0,216,217
 273 244 273 244 273 206 c 1,218,-1
 273 206 l 1,203,204
35 407 m 1,219,-1
 41 413 l 1,220,-1
 477 -23 l 1,221,-1
 471 -29 l 1,222,-1
 35 407 l 1,219,-1
35 -23 m 1,223,-1
 471 413 l 1,224,-1
 477 407 l 1,225,-1
 41 -29 l 1,226,-1
 35 -23 l 1,223,-1
EndSplineSet
Validated: 37
EndChar

StartChar: a
Encoding: 97 97 30
Width: 512
GlyphClass: 2
Flags: W
LayerCount: 2
Fore
SplineSet
256 384 m 1,0,-1
 43 192 l 1,1,-1
 107 192 l 1,2,-1
 107 21 l 1,3,-1
 405 21 l 1,4,-1
 405 192 l 1,5,-1
 469 192 l 1,6,-1
 256 384 l 1,0,-1
256 261 m 256,7,8
 276 261 276 261 290 247 c 128,-1,9
 304 233 304 233 304 213 c 128,-1,10
 304 193 304 193 290 179 c 128,-1,11
 276 165 276 165 256 165 c 128,-1,12
 236 165 236 165 222 179 c 128,-1,13
 208 193 208 193 208 213 c 128,-1,14
 208 233 208 233 222 247 c 128,-1,15
 236 261 236 261 256 261 c 256,7,8
256 128 m 256,16,17
 274 128 274 128 295 123 c 0,18,19
 319 117 319 117 334 107 c 0,20,21
 352 95 352 95 352 80 c 2,22,-1
 352 64 l 1,23,-1
 160 64 l 1,24,-1
 160 80 l 2,25,26
 160 95 160 95 178 107 c 0,27,28
 193 117 193 117 217 123 c 0,29,30
 238 128 238 128 256 128 c 256,16,17
EndSplineSet
Validated: 9
EndChar

StartChar: b
Encoding: 98 98 31
Width: 512
GlyphClass: 2
Flags: W
LayerCount: 2
Fore
SplineSet
400 64 m 1,0,1
 365 25 365 25 316 9.5 c 128,-1,2
 267 -6 267 -6 217 4.5 c 128,-1,3
 167 15 167 15 128 50 c 128,-1,4
 89 85 89 85 74 134 c 128,-1,5
 59 183 59 183 69.5 233 c 128,-1,6
 80 283 80 283 115 321 c 0,7,8
 139 348 139 348 171.5 364.5 c 128,-1,9
 204 381 204 381 240 384 c 1,10,11
 206 345 206 345 195.5 295 c 128,-1,12
 185 245 185 245 201 196.5 c 128,-1,13
 217 148 217 148 256 113 c 0,14,15
 282 89 282 89 315 76.5 c 128,-1,16
 348 64 348 64 384 64 c 2,17,-1
 400 64 l 1,0,1
EndSplineSet
Validated: 33
EndChar

StartChar: c
Encoding: 99 99 32
Width: 512
GlyphClass: 2
Flags: W
LayerCount: 2
Fore
SplineSet
21 357 m 1,0,-1
 49 384 l 1,1,-1
 437 -5 l 1,2,-1
 410 -32 l 1,3,-1
 363 16 l 1,4,5
 315 -28 315 -28 256 -43 c 1,6,7
 202 -29 202 -29 158 9 c 128,-1,8
 114 47 114 47 89 101 c 128,-1,9
 64 155 64 155 64 213 c 2,10,-1
 64 314 l 1,11,-1
 21 357 l 1,0,-1
256 427 m 1,12,-1
 448 341 l 1,13,-1
 448 213 l 2,14,15
 448 141 448 141 410 77 c 1,16,-1
 121 367 l 1,17,-1
 256 427 l 1,12,-1
EndSplineSet
Validated: 1
EndChar

StartChar: d
Encoding: 100 100 33
Width: 512
GlyphClass: 2
Flags: W
LayerCount: 2
Fore
SplineSet
235 171 m 1,0,-1
 277 171 l 1,1,-1
 277 107 l 1,2,-1
 341 107 l 1,3,-1
 341 213 l 1,4,-1
 384 213 l 1,5,-1
 256 320 l 1,6,-1
 128 213 l 1,7,-1
 171 213 l 1,8,-1
 171 107 l 1,9,-1
 235 107 l 1,10,-1
 235 171 l 1,0,-1
256 427 m 1,11,-1
 448 341 l 1,12,-1
 448 213 l 2,13,14
 448 155 448 155 423 101 c 128,-1,15
 398 47 398 47 354 9 c 128,-1,16
 310 -29 310 -29 256 -43 c 1,17,18
 202 -29 202 -29 158 9 c 128,-1,19
 114 47 114 47 89 101 c 128,-1,20
 64 155 64 155 64 213 c 2,21,-1
 64 341 l 1,22,-1
 256 427 l 1,11,-1
EndSplineSet
Validated: 1
EndChar

StartChar: e
Encoding: 101 101 34
Width: 512
GlyphClass: 2
Flags: W
LayerCount: 2
Fore
SplineSet
256 427 m 1,0,-1
 64 341 l 1,1,-1
 64 213 l 2,2,3
 64 155 64 155 89 101 c 128,-1,4
 114 47 114 47 158 9 c 128,-1,5
 202 -29 202 -29 256 -43 c 1,6,7
 310 -29 310 -29 354 9 c 128,-1,8
 398 47 398 47 423 101 c 128,-1,9
 448 155 448 155 448 213 c 2,10,-1
 448 341 l 1,11,-1
 256 427 l 1,0,-1
256 299 m 256,12,13
 279 299 279 299 297.5 283 c 128,-1,14
 316 267 316 267 316 245 c 2,15,-1
 316 213 l 1,16,17
 326 213 326 213 333.5 205 c 128,-1,18
 341 197 341 197 341 186 c 2,19,-1
 341 111 l 2,20,21
 341 101 341 101 333 93 c 128,-1,22
 325 85 325 85 314 85 c 2,23,-1
 196 85 l 2,24,25
 186 85 186 85 178.5 93.5 c 128,-1,26
 171 102 171 102 171 113 c 2,27,-1
 171 188 l 2,28,29
 171 197 171 197 179 205 c 128,-1,30
 187 213 187 213 196 213 c 1,31,-1
 196 245 l 2,32,33
 196 267 196 267 214.5 283 c 128,-1,34
 233 299 233 299 256 299 c 256,12,13
256 273 m 256,35,36
 243 273 243 273 233.5 265.5 c 128,-1,37
 224 258 224 258 224 245 c 2,38,-1
 224 213 l 1,39,-1
 288 213 l 1,40,-1
 288 245 l 2,41,42
 288 258 288 258 278.5 265.5 c 128,-1,43
 269 273 269 273 256 273 c 256,35,36
EndSplineSet
Validated: 9
EndChar

StartChar: f
Encoding: 102 102 35
Width: 512
GlyphClass: 2
Flags: W
LayerCount: 2
Fore
SplineSet
256 427 m 1,0,-1
 64 341 l 1,1,-1
 64 213 l 2,2,3
 64 155 64 155 89 101 c 128,-1,4
 114 47 114 47 158 9 c 128,-1,5
 202 -29 202 -29 256 -43 c 1,6,7
 310 -29 310 -29 354 9 c 128,-1,8
 398 47 398 47 423 101 c 128,-1,9
 448 155 448 155 448 213 c 2,10,-1
 448 341 l 1,11,-1
 256 427 l 1,0,-1
341 141 m 0,12,13
 322 118 322 118 294 110.5 c 128,-1,14
 266 103 266 103 238 111 c 128,-1,15
 210 119 210 119 192 142 c 0,16,17
 169 170 169 170 170 204.5 c 128,-1,18
 171 239 171 239 193 265.5 c 128,-1,19
 215 292 215 292 250 299 c 0,20,21
 255 299 255 299 258.5 295 c 128,-1,22
 262 291 262 291 260 286 c 0,23,24
 253 266 253 266 254.5 244 c 128,-1,25
 256 222 256 222 267 203 c 128,-1,26
 278 184 278 184 296 172 c 128,-1,27
 314 160 314 160 335 156 c 0,28,29
 341 156 341 156 342.5 150.5 c 128,-1,30
 344 145 344 145 341 141 c 0,12,13
EndSplineSet
Validated: 41
EndChar

StartChar: g
Encoding: 103 103 36
Width: 512
GlyphClass: 2
Flags: W
LayerCount: 2
Fore
SplineSet
357 225 m 1,0,1
 329 253 329 253 317 305 c 0,2,3
 309 336 309 336 309 363 c 1,4,-1
 277 363 l 1,5,-1
 277 320 l 1,6,-1
 192 320 l 1,7,-1
 192 363 l 1,8,-1
 149 363 l 1,9,10
 149 380 149 380 161.5 392.5 c 128,-1,11
 174 405 174 405 192 405 c 2,12,-1
 341 405 l 1,13,-1
 341 384 l 2,14,15
 341 360 341 360 346 329 c 0,16,17
 356 271 356 271 379 248 c 1,18,-1
 357 225 l 1,0,1
363 405 m 1,19,-1
 363 363 l 1,20,-1
 384 363 l 1,21,-1
 384 405 l 1,22,-1
 363 405 l 1,19,-1
320 192 m 1,23,24
 301 211 301 211 290 239 c 0,25,26
 282 258 282 258 279 280 c 2,27,-1
 277 299 l 1,28,-1
 192 299 l 1,29,-1
 192 256 l 2,30,31
 192 240 192 240 189.5 234.5 c 128,-1,32
 187 229 187 229 171 213 c 0,33,34
 161 204 161 204 156 193 c 0,35,36
 152 185 152 185 150 177 c 2,37,-1
 149 171 l 1,38,-1
 149 21 l 2,39,40
 149 4 149 4 161.5 -8.5 c 128,-1,41
 174 -21 174 -21 192 -21 c 2,42,-1
 277 -21 l 2,43,44
 295 -21 295 -21 307.5 -8.5 c 128,-1,45
 320 4 320 4 320 21 c 2,46,-1
 320 192 l 1,23,24
EndSplineSet
Validated: 9
EndChar

StartChar: h
Encoding: 104 104 37
Width: 512
GlyphClass: 2
Flags: W
LayerCount: 2
Fore
SplineSet
353 332 m 1,0,-1
 322 301 l 1,1,2
 351 284 351 284 367.5 255 c 128,-1,3
 384 226 384 226 384 191.5 c 128,-1,4
 384 157 384 157 367 127.5 c 128,-1,5
 350 98 350 98 320.5 81 c 128,-1,6
 291 64 291 64 256 64 c 128,-1,7
 221 64 221 64 191.5 81 c 128,-1,8
 162 98 162 98 145 127.5 c 128,-1,9
 128 157 128 157 128 191.5 c 128,-1,10
 128 226 128 226 144.5 255 c 128,-1,11
 161 284 161 284 189 301 c 1,12,-1
 159 332 l 1,13,14
 125 308 125 308 105 271.5 c 128,-1,15
 85 235 85 235 85 192 c 0,16,17
 85 146 85 146 108 106.5 c 128,-1,18
 131 67 131 67 170.5 44 c 128,-1,19
 210 21 210 21 256 21 c 128,-1,20
 302 21 302 21 341.5 44 c 128,-1,21
 381 67 381 67 404 106.5 c 128,-1,22
 427 146 427 146 427 192 c 0,23,24
 427 235 427 235 407 271.5 c 128,-1,25
 387 308 387 308 353 332 c 1,0,-1
277 384 m 1,26,-1
 235 384 l 1,27,-1
 235 171 l 1,28,-1
 277 171 l 1,29,-1
 277 384 l 1,26,-1
EndSplineSet
Validated: 9
EndChar

StartChar: i
Encoding: 105 105 38
Width: 512
GlyphClass: 2
Flags: W
LayerCount: 2
Fore
SplineSet
405 277 m 0,0,1
 423 277 423 277 435.5 264.5 c 128,-1,2
 448 252 448 252 448 235 c 2,3,-1
 448 90 l 1,4,5
 469 71 469 71 469 43.5 c 128,-1,6
 469 16 469 16 450.5 -2.5 c 128,-1,7
 432 -21 432 -21 405.5 -21 c 128,-1,8
 379 -21 379 -21 360 -2.5 c 128,-1,9
 341 16 341 16 341 43.5 c 128,-1,10
 341 71 341 71 363 90 c 1,11,-1
 363 235 l 2,12,13
 363 252 363 252 375.5 264.5 c 128,-1,14
 388 277 388 277 405 277 c 0,0,1
405 256 m 0,15,16
 397 256 397 256 390.5 249.5 c 128,-1,17
 384 243 384 243 384 235 c 2,18,-1
 384 213 l 1,19,-1
 427 213 l 1,20,-1
 427 235 l 2,21,22
 427 243 427 243 420.5 249.5 c 128,-1,23
 414 256 414 256 405 256 c 0,15,16
256 327 m 1,24,-1
 149 231 l 1,25,-1
 149 64 l 1,26,-1
 301 64 l 1,27,-1
 299 43 l 1,28,-1
 301 21 l 1,29,-1
 107 21 l 1,30,-1
 107 192 l 1,31,-1
 43 192 l 1,32,-1
 256 384 l 1,33,-1
 350 300 l 1,34,35
 334 285 334 285 325 264 c 1,36,-1
 256 327 l 1,24,-1
EndSplineSet
Validated: 1
EndChar

StartChar: j
Encoding: 106 106 39
Width: 512
GlyphClass: 2
Flags: W
LayerCount: 2
Fore
SplineSet
320 171 m 1,0,-1
 320 341 l 2,1,2
 320 368 320 368 301.5 386.5 c 128,-1,3
 283 405 283 405 256 405 c 128,-1,4
 229 405 229 405 210.5 386.5 c 128,-1,5
 192 368 192 368 192 341 c 2,6,-1
 192 171 l 1,7,8
 164 150 164 150 154 117 c 128,-1,9
 144 84 144 84 155 51.5 c 128,-1,10
 166 19 166 19 194 -1 c 128,-1,11
 222 -21 222 -21 256 -21 c 128,-1,12
 290 -21 290 -21 318 -1 c 128,-1,13
 346 19 346 19 357 51.5 c 128,-1,14
 368 84 368 84 358 117 c 128,-1,15
 348 150 348 150 320 171 c 1,0,-1
256 363 m 256,16,17
 265 363 265 363 271 356.5 c 128,-1,18
 277 350 277 350 277 341 c 2,19,-1
 277 277 l 1,20,-1
 235 277 l 1,21,-1
 235 341 l 2,22,23
 235 350 235 350 241 356.5 c 128,-1,24
 247 363 247 363 256 363 c 256,16,17
EndSplineSet
Validated: 41
EndChar

StartChar: k
Encoding: 107 107 40
Width: 512
GlyphClass: 2
Flags: W
LayerCount: 2
Fore
SplineSet
158 119 m 1,0,-1
 256 217 l 1,1,-1
 354 119 l 1,2,-1
 384 149 l 1,3,-1
 256 277 l 1,4,-1
 128 149 l 1,5,-1
 158 119 l 1,0,-1
EndSplineSet
Validated: 9
EndChar

StartChar: l
Encoding: 108 108 41
Width: 512
GlyphClass: 2
Flags: W
LayerCount: 2
Fore
SplineSet
158 265 m 1,0,-1
 256 167 l 1,1,-1
 354 265 l 1,2,-1
 384 235 l 1,3,-1
 256 107 l 1,4,-1
 128 235 l 1,5,-1
 158 265 l 1,0,-1
EndSplineSet
Validated: 1
EndChar

StartChar: m
Encoding: 109 109 42
Width: 512
GlyphClass: 2
Flags: W
LayerCount: 2
Fore
SplineSet
171 338 m 1,0,-1
 171 40 l 1,1,-1
 405 189 l 1,2,-1
 171 338 l 1,0,-1
EndSplineSet
Validated: 9
EndChar

StartChar: n
Encoding: 110 110 43
Width: 512
GlyphClass: 2
Flags: W
LayerCount: 2
Fore
SplineSet
384 64 m 1,0,-1
 128 64 l 1,1,-1
 128 320 l 1,2,-1
 384 320 l 1,3,-1
 384 64 l 1,0,-1
EndSplineSet
Validated: 1
EndChar

StartChar: o
Encoding: 111 111 44
Width: 512
GlyphClass: 2
Flags: W
LayerCount: 2
Fore
SplineSet
128 64 m 1,0,-1
 128 320 l 1,1,-1
 171 320 l 1,2,-1
 171 64 l 1,3,-1
 128 64 l 1,0,-1
203 192 m 1,4,-1
 384 320 l 1,5,-1
 384 64 l 1,6,-1
 203 192 l 1,4,-1
EndSplineSet
Validated: 1
EndChar

StartChar: p
Encoding: 112 112 45
Width: 512
GlyphClass: 2
Flags: W
LayerCount: 2
Fore
SplineSet
341 64 m 1,0,-1
 384 64 l 1,1,-1
 384 320 l 1,2,-1
 341 320 l 1,3,-1
 341 64 l 1,0,-1
128 64 m 1,4,-1
 309 192 l 1,5,-1
 128 320 l 1,6,-1
 128 64 l 1,4,-1
EndSplineSet
Validated: 9
EndChar

StartChar: q
Encoding: 113 113 46
Width: 512
GlyphClass: 2
Flags: W
LayerCount: 2
Fore
SplineSet
256 192 m 256,0,1
 229 192 229 192 210.5 173.5 c 128,-1,2
 192 155 192 155 192 128 c 128,-1,3
 192 101 192 101 210.5 82.5 c 128,-1,4
 229 64 229 64 256 64 c 128,-1,5
 283 64 283 64 301.5 82.5 c 128,-1,6
 320 101 320 101 320 128 c 128,-1,7
 320 155 320 155 301.5 173.5 c 128,-1,8
 283 192 283 192 256 192 c 256,0,1
256 21 m 256,9,10
 227 21 227 21 202.5 35.5 c 128,-1,11
 178 50 178 50 163.5 74.5 c 128,-1,12
 149 99 149 99 149 128 c 0,13,14
 149 149 149 149 157.5 168.5 c 128,-1,15
 166 188 166 188 181 203 c 128,-1,16
 196 218 196 218 215.5 226.5 c 128,-1,17
 235 235 235 235 256 235 c 0,18,19
 285 235 285 235 309.5 220.5 c 128,-1,20
 334 206 334 206 348.5 181.5 c 128,-1,21
 363 157 363 157 363 128 c 128,-1,22
 363 99 363 99 348.5 74.5 c 128,-1,23
 334 50 334 50 309.5 35.5 c 128,-1,24
 285 21 285 21 256 21 c 256,9,10
256 363 m 256,25,26
 274 363 274 363 286.5 350.5 c 128,-1,27
 299 338 299 338 299 320 c 128,-1,28
 299 302 299 302 286.5 289.5 c 128,-1,29
 274 277 274 277 256 277 c 128,-1,30
 238 277 238 277 225.5 289.5 c 128,-1,31
 213 302 213 302 213 320 c 128,-1,32
 213 338 213 338 225.5 350.5 c 128,-1,33
 238 363 238 363 256 363 c 256,25,26
363 405 m 2,34,-1
 149 405 l 2,35,36
 132 405 132 405 119.5 392.5 c 128,-1,37
 107 380 107 380 107 363 c 2,38,-1
 107 21 l 2,39,40
 107 4 107 4 119.5 -8.5 c 128,-1,41
 132 -21 132 -21 149 -21 c 2,42,-1
 363 -21 l 2,43,44
 380 -21 380 -21 392.5 -8.5 c 128,-1,45
 405 4 405 4 405 21 c 2,46,-1
 405 363 l 2,47,48
 405 380 405 380 392.5 392.5 c 128,-1,49
 380 405 380 405 363 405 c 2,34,-1
EndSplineSet
Validated: 9
EndChar

StartChar: r
Encoding: 114 114 47
Width: 512
GlyphClass: 2
Flags: W
LayerCount: 2
Fore
SplineSet
299 235 m 0,0,1
 272 235 272 235 253.5 216 c 128,-1,2
 235 197 235 197 235 170.5 c 128,-1,3
 235 144 235 144 253.5 125.5 c 128,-1,4
 272 107 272 107 298.5 107 c 128,-1,5
 325 107 325 107 344 125.5 c 128,-1,6
 363 144 363 144 363 170.5 c 128,-1,7
 363 197 363 197 344 216 c 128,-1,8
 325 235 325 235 299 235 c 0,0,1
299 64 m 256,9,10
 270 64 270 64 245.5 78.5 c 128,-1,11
 221 93 221 93 206.5 117.5 c 128,-1,12
 192 142 192 142 192 171 c 128,-1,13
 192 200 192 200 206.5 224.5 c 128,-1,14
 221 249 221 249 245.5 263 c 128,-1,15
 270 277 270 277 299 277 c 128,-1,16
 328 277 328 277 352.5 263 c 128,-1,17
 377 249 377 249 391 224.5 c 128,-1,18
 405 200 405 200 405 171 c 128,-1,19
 405 142 405 142 391 117.5 c 128,-1,20
 377 93 377 93 352.5 78.5 c 128,-1,21
 328 64 328 64 299 64 c 256,9,10
299 405 m 0,22,23
 316 405 316 405 328.5 392.5 c 128,-1,24
 341 380 341 380 341 362.5 c 128,-1,25
 341 345 341 345 328.5 332.5 c 128,-1,26
 316 320 316 320 298.5 320 c 128,-1,27
 281 320 281 320 268.5 332.5 c 128,-1,28
 256 345 256 345 256 362.5 c 128,-1,29
 256 380 256 380 268.5 392.5 c 128,-1,30
 281 405 281 405 299 405 c 0,22,23
405 448 m 2,31,-1
 192 448 l 2,32,33
 174 448 174 448 161.5 435.5 c 128,-1,34
 149 423 149 423 149 405 c 2,35,-1
 149 64 l 2,36,37
 149 46 149 46 161.5 33.5 c 128,-1,38
 174 21 174 21 192 21 c 2,39,-1
 405 21 l 2,40,41
 423 21 423 21 435.5 33.5 c 128,-1,42
 448 46 448 46 448 64 c 2,43,-1
 448 405 l 2,44,45
 448 423 448 423 435.5 435.5 c 128,-1,46
 423 448 423 448 405 448 c 2,31,-1
107 -21 m 1,47,-1
 363 -21 l 1,48,-1
 363 -64 l 1,49,-1
 107 -64 l 2,50,51
 89 -64 89 -64 76.5 -51.5 c 128,-1,52
 64 -39 64 -39 64 -21 c 2,53,-1
 64 363 l 1,54,-1
 107 363 l 1,55,-1
 107 -21 l 1,47,-1
EndSplineSet
Validated: 9
EndChar

StartChar: s
Encoding: 115 115 48
Width: 512
GlyphClass: 2
Flags: W
LayerCount: 2
Fore
SplineSet
363 299 m 2,0,-1
 149 299 l 2,1,2
 120 299 120 299 95.5 284.5 c 128,-1,3
 71 270 71 270 57 245.5 c 128,-1,4
 43 221 43 221 43 192 c 128,-1,5
 43 163 43 163 57 138.5 c 128,-1,6
 71 114 71 114 95.5 99.5 c 128,-1,7
 120 85 120 85 149 85 c 2,8,-1
 363 85 l 2,9,10
 392 85 392 85 416.5 99.5 c 128,-1,11
 441 114 441 114 455 138.5 c 128,-1,12
 469 163 469 163 469 192 c 128,-1,13
 469 221 469 221 455 245.5 c 128,-1,14
 441 270 441 270 416.5 284.5 c 128,-1,15
 392 299 392 299 363 299 c 2,0,-1
363 128 m 0,16,17
 336 128 336 128 317.5 146.5 c 128,-1,18
 299 165 299 165 299 192 c 128,-1,19
 299 219 299 219 317.5 237.5 c 128,-1,20
 336 256 336 256 362.5 256 c 128,-1,21
 389 256 389 256 408 237.5 c 128,-1,22
 427 219 427 219 427 192 c 128,-1,23
 427 165 427 165 408 146.5 c 128,-1,24
 389 128 389 128 363 128 c 0,16,17
EndSplineSet
Validated: 9
EndChar

StartChar: t
Encoding: 116 116 49
Width: 512
GlyphClass: 2
Flags: W
LayerCount: 2
Fore
SplineSet
363 299 m 2,0,-1
 149 299 l 2,1,2
 120 299 120 299 95.5 284.5 c 128,-1,3
 71 270 71 270 57 245.5 c 128,-1,4
 43 221 43 221 43 192 c 128,-1,5
 43 163 43 163 57 138.5 c 128,-1,6
 71 114 71 114 95.5 99.5 c 128,-1,7
 120 85 120 85 149 85 c 2,8,-1
 363 85 l 2,9,10
 392 85 392 85 416.5 99.5 c 128,-1,11
 441 114 441 114 455 138.5 c 128,-1,12
 469 163 469 163 469 192 c 128,-1,13
 469 221 469 221 455 245.5 c 128,-1,14
 441 270 441 270 416.5 284.5 c 128,-1,15
 392 299 392 299 363 299 c 2,0,-1
149 128 m 0,16,17
 123 128 123 128 104 146.5 c 128,-1,18
 85 165 85 165 85 192 c 128,-1,19
 85 219 85 219 104 237.5 c 128,-1,20
 123 256 123 256 149.5 256 c 128,-1,21
 176 256 176 256 194.5 237.5 c 128,-1,22
 213 219 213 219 213 192 c 128,-1,23
 213 165 213 165 194.5 146.5 c 128,-1,24
 176 128 176 128 149 128 c 0,16,17
EndSplineSet
Validated: 9
EndChar

StartChar: u
Encoding: 117 117 50
Width: 512
GlyphClass: 2
Flags: W
LayerCount: 2
Fore
SplineSet
149 299 m 2,0,-1
 149 85 l 2,1,2
 149 56 149 56 163.5 31.5 c 128,-1,3
 178 7 178 7 202.5 -7 c 128,-1,4
 227 -21 227 -21 256 -21 c 128,-1,5
 285 -21 285 -21 309.5 -7 c 128,-1,6
 334 7 334 7 348.5 31.5 c 128,-1,7
 363 56 363 56 363 85 c 2,8,-1
 363 299 l 2,9,10
 363 328 363 328 348.5 352.5 c 128,-1,11
 334 377 334 377 309.5 391 c 128,-1,12
 285 405 285 405 256 405 c 128,-1,13
 227 405 227 405 202.5 391 c 128,-1,14
 178 377 178 377 163.5 352.5 c 128,-1,15
 149 328 149 328 149 299 c 2,0,-1
320 299 m 0,16,17
 320 272 320 272 301.5 253.5 c 128,-1,18
 283 235 283 235 256 235 c 128,-1,19
 229 235 229 235 210.5 253.5 c 128,-1,20
 192 272 192 272 192 298.5 c 128,-1,21
 192 325 192 325 210.5 344 c 128,-1,22
 229 363 229 363 256 363 c 128,-1,23
 283 363 283 363 301.5 344 c 128,-1,24
 320 325 320 325 320 299 c 0,16,17
EndSplineSet
Validated: 9
EndChar

StartChar: v
Encoding: 118 118 51
Width: 512
GlyphClass: 2
Flags: W
LayerCount: 2
Fore
SplineSet
149 299 m 2,0,-1
 149 85 l 2,1,2
 149 56 149 56 163.5 31.5 c 128,-1,3
 178 7 178 7 202.5 -7 c 128,-1,4
 227 -21 227 -21 256 -21 c 128,-1,5
 285 -21 285 -21 309.5 -7 c 128,-1,6
 334 7 334 7 348.5 31.5 c 128,-1,7
 363 56 363 56 363 85 c 2,8,-1
 363 299 l 2,9,10
 363 328 363 328 348.5 352.5 c 128,-1,11
 334 377 334 377 309.5 391 c 128,-1,12
 285 405 285 405 256 405 c 128,-1,13
 227 405 227 405 202.5 391 c 128,-1,14
 178 377 178 377 163.5 352.5 c 128,-1,15
 149 328 149 328 149 299 c 2,0,-1
320 85 m 0,16,17
 320 59 320 59 301.5 40 c 128,-1,18
 283 21 283 21 256 21 c 128,-1,19
 229 21 229 21 210.5 40 c 128,-1,20
 192 59 192 59 192 85.5 c 128,-1,21
 192 112 192 112 210.5 130.5 c 128,-1,22
 229 149 229 149 256 149 c 128,-1,23
 283 149 283 149 301.5 130.5 c 128,-1,24
 320 112 320 112 320 85 c 0,16,17
EndSplineSet
Validated: 9
EndChar

StartChar: w
Encoding: 119 119 52
Width: 512
GlyphClass: 2
Flags: W
LayerCount: 2
Fore
SplineSet
320 256 m 1,0,-1
 107 256 l 1,1,-1
 107 341 l 1,2,-1
 320 341 l 1,3,-1
 320 256 l 1,0,-1
256 43 m 256,4,5
 229 43 229 43 210.5 61.5 c 128,-1,6
 192 80 192 80 192 106.5 c 128,-1,7
 192 133 192 133 210.5 152 c 128,-1,8
 229 171 229 171 256 171 c 128,-1,9
 283 171 283 171 301.5 152 c 128,-1,10
 320 133 320 133 320 106.5 c 128,-1,11
 320 80 320 80 301.5 61.5 c 128,-1,12
 283 43 283 43 256 43 c 256,4,5
363 384 m 1,13,-1
 107 384 l 2,14,15
 89 384 89 384 76.5 371.5 c 128,-1,16
 64 359 64 359 64 341 c 2,17,-1
 64 43 l 2,18,19
 64 25 64 25 76.5 12.5 c 128,-1,20
 89 0 89 0 107 0 c 2,21,-1
 405 0 l 2,22,23
 423 0 423 0 435.5 12.5 c 128,-1,24
 448 25 448 25 448 43 c 2,25,-1
 448 299 l 1,26,-1
 363 384 l 1,13,-1
EndSplineSet
Validated: 9
EndChar

StartChar: x
Encoding: 120 120 64
Width: 512
LayerCount: 2
Fore
SplineSet
465.06640625 170.666992188 m 2,0,-1
 426.666992188 170.666992188 l 1,1,-1
 426.666992188 0 l 1,2,-1
 277.333007812 0 l 1,3,-1
 277.333007812 71.0400390625 l 1,4,-1
 336.853515625 130.559570312 l 1,5,-1
 352 128 l 2,6,7
 370.544189453 128 370.544189453 128 383.67199707 141.127807617 c 128,-1,8
 396.799804688 154.255615234 396.799804688 154.255615234 396.799804688 172.799804688 c 128,-1,9
 396.799804688 191.343994141 396.799804688 191.343994141 383.67199707 204.471801758 c 128,-1,10
 370.544189453 217.599609375 370.544189453 217.599609375 352 217.599609375 c 128,-1,11
 333.455810547 217.599609375 333.455810547 217.599609375 320.32800293 204.471801758 c 128,-1,12
 307.200195312 191.343994141 307.200195312 191.343994141 307.200195312 172.799804688 c 2,13,-1
 309.333007812 157.653320312 l 1,14,-1
 277.333007812 125.2265625 l 1,15,-1
 277.333007812 242.133789062 l 1,16,17
 300.799804688 254.933268229 300.799804688 254.933268229 300.799804688 281.599609375 c 0,18,19
 300.799804688 300.144455705 300.799804688 300.144455705 287.672034842 313.272423165 c 128,-1,20
 274.544264997 326.400390625 274.544264997 326.400390625 256 326.400390625 c 128,-1,21
 237.455735003 326.400390625 237.455735003 326.400390625 224.327965158 313.272423165 c 128,-1,22
 211.200195312 300.144455705 211.200195312 300.144455705 211.200195312 281.599609375 c 0,23,24
 211.200195312 254.933268229 211.200195312 254.933268229 234.666992188 242.133789062 c 1,25,-1
 234.666992188 125.2265625 l 1,26,-1
 202.666992188 157.653320312 l 1,27,-1
 204.799804688 172.799804688 l 2,28,29
 204.799804688 191.343994141 204.799804688 191.343994141 191.67199707 204.471801758 c 128,-1,30
 178.544189453 217.599609375 178.544189453 217.599609375 160 217.599609375 c 128,-1,31
 141.455810547 217.599609375 141.455810547 217.599609375 128.32800293 204.471801758 c 128,-1,32
 115.200195312 191.343994141 115.200195312 191.343994141 115.200195312 172.799804688 c 128,-1,33
 115.200195312 154.255615234 115.200195312 154.255615234 128.32800293 141.127807617 c 128,-1,34
 141.455810547 128 141.455810547 128 160 128 c 2,35,-1
 175.146484375 130.559570312 l 1,36,-1
 234.666992188 71.0400390625 l 1,37,-1
 234.666992188 0 l 1,38,-1
 85.3330078125 0 l 1,39,-1
 85.3330078125 170.666992188 l 1,40,-1
 48 170.666992188 l 2,41,42
 30.29296875 170.666992188 30.29296875 170.666992188 30.29296875 175.146484375 c 0,43,44
 30.5067903947 179.838844305 30.5067903947 179.838844305 48.6396484375 197.973632812 c 2,45,-1
 234.666992188 384 l 2,46,47
 248.959960938 398.29296875 248.959960938 398.29296875 256 398.29296875 c 128,-1,48
 263.040039062 398.29296875 263.040039062 398.29296875 277.333007812 384 c 2,49,-1
 362.666992188 298.666992188 l 1,50,-1
 362.666992188 320 l 1,51,-1
 405.333007812 320 l 1,52,-1
 405.333007812 256 l 1,53,-1
 464.639648438 196.693359375 l 2,54,55
 481.919921875 179.413085938 481.919921875 179.413085938 482.133789062 174.93359375 c 0,56,57
 482.133789062 170.666992188 482.133789062 170.666992188 465.06640625 170.666992188 c 2,0,-1
160 192 m 128,-1,59
 167.947509766 192 167.947509766 192 173.573852539 186.373657227 c 128,-1,60
 179.200195312 180.747314453 179.200195312 180.747314453 179.200195312 172.799804688 c 128,-1,61
 179.200195312 164.852294922 179.200195312 164.852294922 173.573852539 159.225952148 c 128,-1,62
 167.947509766 153.599609375 167.947509766 153.599609375 160 153.599609375 c 128,-1,63
 152.052490234 153.599609375 152.052490234 153.599609375 146.426147461 159.225952148 c 128,-1,64
 140.799804688 164.852294922 140.799804688 164.852294922 140.799804688 172.799804688 c 128,-1,65
 140.799804688 180.747314453 140.799804688 180.747314453 146.426147461 186.373657227 c 128,-1,58
 152.052490234 192 152.052490234 192 160 192 c 128,-1,59
352 192 m 128,-1,67
 360.000244141 192 360.000244141 192 365.600219727 186.400024414 c 128,-1,68
 371.200195312 180.800048828 371.200195312 180.800048828 371.200195312 172.799804688 c 128,-1,69
 371.200195312 164.800123947 371.200195312 164.800123947 365.600135219 159.199866661 c 128,-1,70
 360.000075125 153.599609375 360.000075125 153.599609375 352 153.599609375 c 128,-1,71
 344.052490234 153.599609375 344.052490234 153.599609375 338.426147461 159.225952148 c 128,-1,72
 332.799804688 164.852294922 332.799804688 164.852294922 332.799804688 172.799804688 c 128,-1,73
 332.799804688 180.747314453 332.799804688 180.747314453 338.426147461 186.373657227 c 128,-1,66
 344.052490234 192 344.052490234 192 352 192 c 128,-1,67
256 300.799804688 m 0,74,75
 264.000244141 300.799804688 264.000244141 300.799804688 269.600219727 295.199829102 c 128,-1,76
 275.200195312 289.599853516 275.200195312 289.599853516 275.200195312 281.599609375 c 128,-1,77
 275.200195312 273.600022537 275.200195312 273.600022537 269.600182166 268.000206581 c 128,-1,78
 264.000169019 262.400390625 264.000169019 262.400390625 256 262.400390625 c 128,-1,79
 247.999830981 262.400390625 247.999830981 262.400390625 242.399817834 268.000206581 c 128,-1,80
 236.799804688 273.600022537 236.799804688 273.600022537 236.799804688 281.599609375 c 128,-1,81
 236.799804688 289.599853516 236.799804688 289.599853516 242.399780273 295.199829102 c 128,-1,82
 247.999755859 300.799804688 247.999755859 300.799804688 256 300.799804688 c 1024,83,-1
EndSplineSet
Validated: 3
EndChar

StartChar: y
Encoding: 121 121 65
Width: 512
LayerCount: 2
Fore
SplineSet
256 416 m 0,0,1
 348.994140625 416 348.994140625 416 414.633300781 350.360839844 c 128,-1,2
 480.272460938 284.721679688 480.272460938 284.721679688 480.272460938 192 c 128,-1,3
 480.272460938 99.2783203125 480.272460938 99.2783203125 414.633300781 33.6391601562 c 128,-1,4
 348.994140625 -32 348.994140625 -32 256.272460938 -32 c 0,5,6
 206.412679087 -32 206.412679087 -32 162.358774497 -11.4409002098 c 128,-1,7
 118.304869908 9.11819958048 118.304869908 9.11819958048 86.896484375 45.408203125 c 1,8,-1
 94.81640625 53.408203125 l 1,9,-1
 100.559570312 59.15234375 l 1,10,-1
 106.3203125 64.912109375 l 1,11,-1
 112.080078125 70.671875 l 1,12,13
 168.522683796 4.658203125 168.522683796 4.658203125 255.221679688 4.658203125 c 0,14,15
 332.76335219 4.658203125 332.76335219 4.658203125 387.656578439 59.5512317585 c 128,-1,16
 442.549804688 114.444260392 442.549804688 114.444260392 442.549804688 191.986328125 c 128,-1,17
 442.549804688 269.527832031 442.549804688 269.527832031 387.656494141 324.421142578 c 128,-1,18
 332.763183594 379.314453125 332.763183594 379.314453125 255.221679688 379.314453125 c 128,-1,19
 177.679611955 379.314453125 177.679611955 379.314453125 122.786583321 324.421226876 c 128,-1,20
 67.8935546875 269.528000627 67.8935546875 269.528000627 67.8935546875 191.986328125 c 0,21,22
 67.8935546875 171.275072818 67.8935546875 171.275072818 72.3203125 151.391601562 c 1,23,-1
 59.83984375 138.879882812 l 1,24,-1
 43.2001953125 122.16015625 l 1,25,26
 32.052734375 156.063066003 32.052734375 156.063066003 32.052734375 192.065429688 c 0,27,28
 32.052734375 284.747558594 32.052734375 284.747558594 97.6638183594 350.358642578 c 128,-1,29
 163.274902344 415.969726562 163.274902344 415.969726562 256 416 c 0,0,1
55.18359375 96.17578125 m 1,30,-1
 230.400390625 271.599609375 l 1,31,-1
 256 297.200195312 l 1,32,-1
 281.599609375 271.599609375 l 1,33,-1
 410.9921875 142.208007812 l 1,34,-1
 408.240234375 134.032226562 l 1,35,-1
 405.34375 126.688476562 l 1,36,-1
 402.143554688 119.51953125 l 1,37,-1
 398.559570312 112.528320312 l 1,38,-1
 395.360351562 106.864257812 l 1,39,-1
 256 246.080078125 l 1,40,-1
 73.8076171875 63.744140625 l 1,41,42
 63.0334088704 79.1227997374 63.0334088704 79.1227997374 55.18359375 96.17578125 c 1,30,-1
EndSplineSet
Validated: 1
EndChar

StartChar: z
Encoding: 122 122 66
Width: 512
Flags: W
LayerCount: 2
Fore
SplineSet
427 11 m 2,0,1
 427 -2 427 -2 417 -11.5 c 128,-1,2
 407 -21 407 -21 395 -21 c 2,3,-1
 277 -21 l 2,4,5
 265 -21 265 -21 256 -13 c 2,6,-1
 171 77 l 1,7,-1
 186 94 l 2,8,9
 192 100 192 100 203 100 c 2,10,-1
 207 100 l 1,11,-1
 256 64 l 1,12,-1
 256 256 l 2,13,14
 256 266 256 266 262 271.5 c 128,-1,15
 268 277 268 277 277.5 277 c 128,-1,16
 287 277 287 277 293 271.5 c 128,-1,17
 299 266 299 266 299 256 c 2,18,-1
 299 160 l 1,19,-1
 324 158 l 1,20,-1
 407 111 l 2,21,22
 415 108 415 108 421 99.5 c 128,-1,23
 427 91 427 91 427 83 c 2,24,-1
 427 11 l 2,0,1
427 405 m 2,25,-1
 85 405 l 2,26,27
 68 405 68 405 55.5 392.5 c 128,-1,28
 43 380 43 380 43 363 c 2,29,-1
 43 192 l 2,30,31
 43 174 43 174 55.5 161.5 c 128,-1,32
 68 149 68 149 85 149 c 2,33,-1
 171 149 l 1,34,-1
 171 192 l 1,35,-1
 85 192 l 1,36,-1
 85 363 l 1,37,-1
 427 363 l 1,38,-1
 427 192 l 1,39,-1
 384 192 l 1,40,-1
 384 149 l 1,41,-1
 427 149 l 2,42,43
 444 149 444 149 456.5 161.5 c 128,-1,44
 469 174 469 174 469 192 c 2,45,-1
 469 363 l 2,46,47
 469 380 469 380 456.5 392.5 c 128,-1,48
 444 405 444 405 427 405 c 2,25,-1
EndSplineSet
Validated: 9
EndChar

StartChar: braceleft
Encoding: 123 123 67
Width: 512
Flags: W
LayerCount: 2
Fore
SplineSet
329 94 m 1,0,-1
 231 192 l 1,1,-1
 329 290 l 1,2,-1
 299 320 l 1,3,-1
 171 192 l 1,4,-1
 299 64 l 1,5,-1
 329 94 l 1,0,-1
EndSplineSet
Validated: 9
EndChar

StartChar: bar
Encoding: 124 124 68
Width: 512
Flags: W
LayerCount: 2
Fore
SplineSet
183 94 m 1,0,-1
 281 192 l 1,1,-1
 183 290 l 1,2,-1
 213 320 l 1,3,-1
 341 192 l 1,4,-1
 213 64 l 1,5,-1
 183 94 l 1,0,-1
EndSplineSet
Validated: 1
EndChar

StartChar: exclam
Encoding: 33 33 69
Width: 512
Flags: W
LayerCount: 2
Fore
SplineSet
377 209 m 1,0,1
 373 214 373 214 363 224 c 2,2,-1
 360 227 l 2,3,4
 354 232 354 232 340 242 c 0,5,6
 324 255 324 255 316 262 c 0,7,8
 292 285 292 285 287 319.5 c 128,-1,9
 282 354 282 354 298 384 c 1,10,11
 272 378 272 378 244 356 c 0,12,13
 203 322 203 322 188.5 269 c 128,-1,14
 174 216 174 216 193 166 c 0,15,16
 195 162 195 162 195 159 c 0,17,18
 195 151 195 151 187.5 148 c 128,-1,19
 180 145 180 145 174 151 c 0,20,21
 172 152 172 152 171 154 c 0,22,23
 153 177 153 177 150 207 c 128,-1,24
 147 237 147 237 159 264 c 1,25,26
 133 242 133 242 119 208 c 128,-1,27
 105 174 105 174 107 139 c 0,28,29
 109 118 109 118 113 107 c 0,30,31
 117 90 117 90 128 70 c 0,32,33
 145 43 145 43 173.5 24.5 c 128,-1,34
 202 6 202 6 234 2 c 0,35,36
 270 -3 270 -3 303 5 c 0,37,38
 338 13 338 13 363 36 c 0,39,40
 393 63 393 63 402 101.5 c 128,-1,41
 411 140 411 140 396 177 c 1,42,-1
 393 182 l 2,43,44
 389 192 389 192 377 209 c 1,45,-1
 377 209 l 1,0,1
309 75 m 1,46,47
 298 65 298 65 286 62 c 0,48,49
 269 56 269 56 251 62 c 0,50,51
 236 67 236 67 224 79 c 1,52,53
 242 84 242 84 253.5 96 c 128,-1,54
 265 108 265 108 269 123 c 0,55,56
 272 135 272 135 266 157 c 2,57,-1
 263 171 l 2,58,59
 259 195 259 195 267 215 c 1,60,61
 274 199 274 199 280 192 c 128,-1,62
 286 185 286 185 299 173.5 c 128,-1,63
 312 162 312 162 317 155 c 0,64,65
 325 145 325 145 328 132 c 0,66,67
 329 128 329 128 329 123 c 0,68,69
 330 110 330 110 324.5 96.5 c 128,-1,70
 319 83 319 83 309 75 c 1,71,-1
 309 75 l 1,46,47
EndSplineSet
EndChar

StartChar: quotedbl
Encoding: 34 34 70
Width: 512
Flags: W
LayerCount: 2
Fore
SplineSet
444 150 m 1,0,-1
 394 137 l 1,1,-1
 351 161 l 1,2,-1
 351 223 l 1,3,-1
 394 247 l 1,4,-1
 444 234 l 1,5,-1
 455 275 l 1,6,-1
 417 285 l 1,7,-1
 427 323 l 1,8,-1
 385 334 l 1,9,-1
 372 284 l 1,10,-1
 330 260 l 1,11,-1
 277 291 l 1,12,-1
 277 339 l 1,13,-1
 314 375 l 1,14,-1
 284 405 l 1,15,-1
 256 378 l 1,16,-1
 228 405 l 1,17,-1
 198 375 l 1,18,-1
 235 339 l 1,19,-1
 235 291 l 1,20,-1
 181 260 l 1,21,-1
 139 284 l 1,22,-1
 126 334 l 1,23,-1
 85 323 l 1,24,-1
 95 285 l 1,25,-1
 58 275 l 1,26,-1
 69 234 l 1,27,-1
 118 247 l 1,28,-1
 161 223 l 1,29,-1
 161 161 l 1,30,-1
 118 137 l 1,31,-1
 69 150 l 1,32,-1
 58 109 l 1,33,-1
 95 99 l 1,34,-1
 85 61 l 1,35,-1
 127 50 l 1,36,-1
 140 100 l 1,37,-1
 182 124 l 1,38,-1
 235 93 l 1,39,-1
 235 45 l 1,40,-1
 198 9 l 1,41,-1
 228 -21 l 1,42,-1
 256 6 l 1,43,-1
 284 -21 l 1,44,-1
 314 9 l 1,45,-1
 277 45 l 1,46,-1
 277 93 l 1,47,-1
 331 124 l 1,48,-1
 373 100 l 1,49,-1
 387 51 l 1,50,-1
 427 61 l 1,51,-1
 417 99 l 1,52,-1
 454 109 l 1,53,-1
 444 150 l 1,0,-1
203 223 m 1,54,-1
 256 254 l 1,55,-1
 309 223 l 1,56,-1
 309 161 l 1,57,-1
 256 130 l 1,58,-1
 203 161 l 1,59,-1
 203 223 l 1,54,-1
EndSplineSet
EndChar

StartChar: numbersign
Encoding: 35 35 71
Width: 512
Flags: W
LayerCount: 2
Fore
SplineSet
235 318 m 0,0,1
 235 318 235 318 235 275 c 1,2,3
 206 267 206 267 188.5 244 c 128,-1,4
 171 221 171 221 171 192 c 128,-1,5
 171 163 171 163 189 139.5 c 128,-1,6
 207 116 207 116 235 109 c 1,7,8
 235 66 235 66 235 66 c 1,9,10
 189 74 189 74 158.5 109.5 c 128,-1,11
 128 145 128 145 128 192 c 128,-1,12
 128 239 128 239 158.5 274.5 c 128,-1,13
 189 310 189 310 235 318 c 0,0,1
256 433.280273438 m 17,14,-1
 185.38671875 362.666992188 l 1,15,-1
 85.3330078125 362.666992188 l 1,16,-1
 85.3330078125 262.61328125 l 1,17,-1
 14.7197265625 192 l 1,18,-1
 85.3330078125 121.38671875 l 1,19,-1
 85.3330078125 21.3330078125 l 1,20,-1
 185.38671875 21.3330078125 l 1,21,-1
 256 -49.2802734375 l 1,22,-1
 277.333007812 -27.9462890625 l 1,23,-1
 277.333007812 67.626953125 l 1,24,-1
 346.453125 -1.4931640625 l 1,25,-1
 376.747070312 28.5869140625 l 1,26,-1
 277.333007812 128 l 1,27,-1
 277.333007812 170.666992188 l 1,28,-1
 320 170.666992188 l 1,29,-1
 419.413085938 71.2529296875 l 1,30,-1
 449.493164062 101.546875 l 1,31,-1
 380.373046875 170.666992188 l 1,32,-1
 469.333007812 170.666992188 l 1,33,-1
 469.333007812 213.333007812 l 1,34,-1
 380.373046875 213.333007812 l 1,35,-1
 449.493164062 282.453125 l 1,36,-1
 419.413085938 312.747070312 l 1,37,-1
 320 213.333007812 l 1,38,-1
 277.333007812 213.333007812 l 1,39,-1
 277.333007812 256 l 1,40,-1
 376.747070312 355.413085938 l 1,41,-1
 346.453125 385.493164062 l 1,42,-1
 277.333007812 316.373046875 l 1,43,-1
 277.333007812 411.946289062 l 1,44,-1
 256 433.280273438 l 17,14,-1
EndSplineSet
EndChar

StartChar: dollar
Encoding: 36 36 72
Width: 512
Flags: W
LayerCount: 2
Fore
SplineSet
256 405 m 256,0,1
 198 405 198 405 149 376.5 c 128,-1,2
 100 348 100 348 71.5 299 c 128,-1,3
 43 250 43 250 43 192 c 128,-1,4
 43 134 43 134 71.5 85 c 128,-1,5
 100 36 100 36 149 7.5 c 128,-1,6
 198 -21 198 -21 256 -21 c 0,7,8
 271 -21 271 -21 279 -19 c 1,9,-1
 329 122 l 1,10,-1
 316 134 l 1,11,12
 327 146 327 146 334 161.5 c 128,-1,13
 341 177 341 177 341 194 c 0,14,15
 341 218 341 218 329 237 c 1,16,-1
 375 284 l 1,17,18
 405 241 405 241 405 192 c 1,19,-1
 427 192 l 2,20,21
 435 192 435 192 444 188 c 2,22,-1
 445 187 l 2,23,24
 446 187 446 187 446 186 c 0,25,26
 461 178 461 178 467 162 c 1,27,28
 469 173 469 173 469 192 c 0,29,30
 469 250 469 250 440.5 299 c 128,-1,31
 412 348 412 348 363 376.5 c 128,-1,32
 314 405 314 405 256 405 c 256,0,1
299 265 m 1,33,34
 279 277 279 277 256 277 c 0,35,36
 221 277 221 277 196 252 c 128,-1,37
 171 227 171 227 171 191 c 128,-1,38
 171 155 171 155 196 132 c 1,39,-1
 151 87 l 1,40,41
 130 107 130 107 118.5 134.5 c 128,-1,42
 107 162 107 162 107 192 c 0,43,44
 107 233 107 233 127 267 c 128,-1,45
 147 301 147 301 181 321 c 128,-1,46
 215 341 215 341 256 341 c 0,47,48
 306 341 306 341 346 311 c 1,49,-1
 299 265 l 1,33,34
427 149 m 1,50,-1
 384 149 l 1,51,-1
 316 -43 l 1,52,-1
 356 -43 l 1,53,-1
 371 0 l 1,54,-1
 439 0 l 1,55,-1
 454 -43 l 1,56,-1
 495 -43 l 1,57,-1
 427 149 l 1,50,-1
380 28 m 1,58,-1
 405 107 l 1,59,-1
 431 28 l 1,60,-1
 380 28 l 1,58,-1
EndSplineSet
EndChar

StartChar: percent
Encoding: 37 37 73
Width: 512
Flags: W
LayerCount: 2
Fore
SplineSet
256 64 m 0,0,1
 256 42 256 42 263 21 c 1,2,-1
 256 21 l 2,3,4
 221 21 221 21 191.5 38.5 c 128,-1,5
 162 56 162 56 145 85.5 c 128,-1,6
 128 115 128 115 128 149 c 0,7,8
 128 179 128 179 148 221 c 0,9,10
 164 255 164 255 192 296 c 0,11,12
 212 325 212 325 236 355 c 2,13,-1
 256 379 l 1,14,-1
 281 349 l 2,15,16
 310 312 310 312 332 277 c 0,17,18
 363 229 363 229 376 192 c 1,19,20
 343 190 343 190 315.5 172 c 128,-1,21
 288 154 288 154 272 125.5 c 128,-1,22
 256 97 256 97 256 64 c 0,0,1
460 109 m 1,23,-1
 429 139 l 1,24,-1
 384 94 l 1,25,-1
 339 139 l 1,26,-1
 309 109 l 1,27,-1
 354 64 l 1,28,-1
 309 19 l 1,29,-1
 339 -11 l 1,30,-1
 384 34 l 1,31,-1
 429 -11 l 1,32,-1
 459 19 l 1,33,-1
 414 64 l 1,34,-1
 460 109 l 1,23,-1
EndSplineSet
EndChar

StartChar: ampersand
Encoding: 38 38 74
Width: 512
Flags: W
LayerCount: 2
Fore
SplineSet
363 277 m 1,0,1
 277 258 277 258 219 213 c 0,2,3
 171 175 171 175 137 116 c 0,4,5
 116 80 116 80 87 7 c 2,6,-1
 81 -7 l 1,7,-1
 122 -21 l 1,8,-1
 142 28 l 1,9,10
 160 21 160 21 171 21 c 0,11,12
 251 21 251 21 316 78 c 0,13,14
 368 123 368 123 408 203 c 0,15,16
 436 259 436 259 456 327 c 0,17,18
 465 361 465 361 469 384 c 1,19,-1
 469 384 l 1,20,21
 459 364 459 364 405 350 c 0,22,23
 373 342 373 342 289 330 c 0,24,25
 222 321 222 321 192 315 c 0,26,27
 143 305 143 305 106 275 c 0,28,29
 75 249 75 249 58 214 c 0,30,31
 43 184 43 184 43 160 c 0,32,33
 43 133 43 133 61 104 c 0,34,35
 71 89 71 89 80 80 c 1,36,-1
 80 80 l 1,37,38
 99 135 99 135 136 176 c 0,39,40
 167 211 167 211 209 235 c 0,41,42
 243 254 243 254 283 265 c 0,43,44
 312 273 312 273 340 276 c 2,45,-1
 363 277 l 1,0,1
EndSplineSet
EndChar

StartChar: quotesingle
Encoding: 39 39 75
Width: 512
Flags: W
LayerCount: 2
Fore
SplineSet
445 -37 m 1,0,-1
 386 21 l 1,1,-1
 299 21 l 1,2,-1
 299 109 l 1,3,-1
 258 149 l 1,4,-1
 213 149 l 1,5,-1
 213 21 l 1,6,-1
 107 21 l 1,7,-1
 107 192 l 1,8,-1
 43 192 l 1,9,-1
 134 274 l 1,10,-1
 24 384 l 1,11,-1
 51 411 l 1,12,-1
 472 -10 l 1,13,-1
 445 -37 l 1,0,-1
405 192 m 1,14,-1
 469 192 l 1,15,-1
 256 384 l 1,16,-1
 191 325 l 1,17,-1
 405 111 l 1,18,-1
 405 192 l 1,14,-1
EndSplineSet
EndChar

StartChar: parenleft
Encoding: 40 40 76
Width: 512
Flags: W
LayerCount: 2
Fore
SplineSet
213 21 m 1,0,-1
 213 149 l 1,1,-1
 299 149 l 1,2,-1
 299 21 l 1,3,-1
 405 21 l 1,4,-1
 405 192 l 1,5,-1
 469 192 l 1,6,-1
 256 384 l 1,7,-1
 43 192 l 1,8,-1
 107 192 l 1,9,-1
 107 21 l 1,10,-1
 213 21 l 1,0,-1
EndSplineSet
EndChar

StartChar: parenright
Encoding: 41 41 79
Width: 512
Flags: W
LayerCount: 2
Fore
SplineSet
400 64 m 1,0,1
 365 25 365 25 316 9.5 c 128,-1,2
 267 -6 267 -6 217 4.5 c 128,-1,3
 167 15 167 15 128 50 c 128,-1,4
 89 85 89 85 74 134 c 128,-1,5
 59 183 59 183 69.5 233 c 128,-1,6
 80 283 80 283 115 321 c 0,7,8
 139 348 139 348 171.5 364.5 c 128,-1,9
 204 381 204 381 240 384 c 1,10,11
 206 345 206 345 195.5 295 c 128,-1,12
 185 245 185 245 201 196.5 c 128,-1,13
 217 148 217 148 256 113 c 0,14,15
 282 89 282 89 315 76.5 c 128,-1,16
 348 64 348 64 384 64 c 2,17,-1
 400 64 l 1,0,1
EndSplineSet
EndChar

StartChar: asterisk
Encoding: 42 42 80
Width: 512
Flags: W
LayerCount: 2
Fore
SplineSet
245.333007812 21.3330078125 m 1,0,-1
 349.013671875 228.90625 l 1,1,-1
 277.333007812 228.90625 l 1,2,-1
 277.333007812 362.666992188 l 1,3,-1
 170.666992188 155.09375 l 1,4,-1
 245.333007812 155.09375 l 1,5,-1
 245.333007812 21.3330078125 l 1,0,-1
256 405.333007812 m 0,6,7
 343 405 343 405 406.400390625 342.400390625 c 0,8,9
 469 279 469 279 469.333007812 192 c 0,10,11
 469 105 469 105 406.400390625 41.599609375 c 0,12,13
 343 -21 343 -21 256 -21.3330078125 c 0,14,15
 169 -21 169 -21 105.599609375 41.599609375 c 0,16,17
 43 105 43 105 42.6669921875 192 c 0,18,19
 43 279 43 279 108.600585938 344.233148038 c 0,20,21
 171 405 171 405 256 405.333007812 c 0,6,7
EndSplineSet
EndChar

StartChar: plus
Encoding: 43 43 81
Width: 512
Flags: W
LayerCount: 2
Fore
SplineSet
410.115234375 41.2744140625 m 128,-1,1
 392.207519531 67.2475585938 392.207519531 67.2475585938 390.549560547 74.9061279297 c 128,-1,2
 388.891601562 82.5646972656 388.891601562 82.5646972656 396.8515625 102.54296875 c 0,3,4
 407.465877473 129.179963266 407.465877473 129.179963266 408.008789062 129.192382812 c 128,-1,5
 408.553876243 129.202639829 408.553876243 129.202639829 441.985308929 81.2749105321 c 128,-1,6
 475.416741615 33.3471812348 475.416741615 33.3471812348 475.395507812 32.5849609375 c 0,7,8
 475.366694431 31.5749761041 475.366694431 31.5749761041 437.508789062 8.7626953125 c 0,9,10
 434.870605469 7.17333984375 434.870605469 7.17333984375 431.446411133 11.2373046875 c 128,-1,0
 428.022216797 15.3012695312 428.022216797 15.3012695312 410.115234375 41.2744140625 c 128,-1,1
170.579101562 48.6728515625 m 0,11,12
 151.009117784 86.6396865772 151.009117784 86.6396865772 133.1953125 121.125976562 c 0,13,14
 115.973843901 154.465543859 115.973843901 154.465543859 91.2529296875 202.3828125 c 0,15,16
 66.7208022422 249.934150245 66.7208022422 249.934150245 51.3466796875 279.6640625 c 0,17,18
 44.1928022447 293.495717978 44.1928022447 293.495717978 40.872503887 300.848610874 c 128,-1,19
 37.5522055292 308.20150377 37.5522055292 308.20150377 36.8562558787 312.908713345 c 128,-1,20
 36.1603062281 317.61592292 36.1603062281 317.61592292 38.2001406057 318.922707554 c 128,-1,21
 40.2399749834 320.229492188 40.2399749834 320.229492188 45.3486328125 320.229492188 c 0,22,23
 50.8254547074 320.229492188 50.8254547074 320.229492188 54.2558297697 316.798735704 c 128,-1,24
 57.686204832 313.36797922 57.686204832 313.36797922 71.1494140625 294.426757812 c 0,25,26
 178.058058668 144.011732369 178.058058668 144.011732369 178.822265625 143.201171875 c 128,-1,27
 179.6504201 142.322145053 179.6504201 142.322145053 308.15234375 169.2265625 c 0,28,29
 359.378658867 179.95272682 359.378658867 179.95272682 371.220092773 180.36328125 c 128,-1,30
 383.06152668 180.77383568 383.06152668 180.77383568 387.708007812 171.985351562 c 0,31,32
 391.276305748 165.239968258 391.276305748 165.239968258 388.583007812 155.914306641 c 128,-1,33
 385.889709877 146.588645024 385.889709877 146.588645024 365.745117188 95.9404296875 c 0,34,35
 346.965236851 48.7234122734 346.965236851 48.7234122734 339.235351562 29.1875 c 0,36,37
 333.386230469 14.4050292969 333.386230469 14.4050292969 323.620361328 11.9416503906 c 128,-1,38
 313.854492188 9.47827148438 313.854492188 9.47827148438 261.108398438 9.48046875 c 0,39,40
 222.037217882 9.48209635417 222.037217882 9.48209635417 209.193576389 11.6597764757 c 128,-1,41
 196.349934896 13.8374565972 196.349934896 13.8374565972 189.075954861 20.3691948785 c 128,-1,42
 181.801974826 26.9009331597 181.801974826 26.9009331597 170.579101562 48.6728515625 c 0,11,12
177.7734375 192.641601562 m 128,-1,44
 162.909409299 214.281877914 162.909409299 214.281877914 158.122070312 220.752929688 c 0,45,46
 140.787910154 244.188228158 140.787910154 244.188228158 153.407348633 268.250488281 c 128,-1,47
 166.026787112 292.312748404 166.026787112 292.312748404 194.712890625 290.5234375 c 0,48,49
 207.605574458 289.719246916 207.605574458 289.719246916 215.360312667 283.523444036 c 128,-1,50
 223.115050877 277.327641156 223.115050877 277.327641156 240.204101562 254.177734375 c 0,51,52
 242.441860899 251.146538213 242.441860899 251.146538213 245.516362045 246.951529245 c 128,-1,53
 248.590863192 242.756520276 248.590863192 242.756520276 249.45571608 241.119079154 c 128,-1,54
 250.320568968 239.481638031 250.320568968 239.481638031 252.880299545 237.117410104 c 128,-1,55
 255.440030122 234.753182177 255.440030122 234.753182177 255.85543483 234.174188529 c 128,-1,56
 256.270839537 233.595194881 256.270839537 233.595194881 259.292112045 232.807064401 c 128,-1,57
 262.313384553 232.018933921 262.313384553 232.018933921 263.25565358 232.243704154 c 128,-1,58
 264.197922607 232.468474386 264.197922607 232.468474386 268.657049545 233.00175776 c 128,-1,59
 273.116176484 233.535041135 273.116176484 233.535041135 275.56162233 234.308891654 c 128,-1,60
 278.007068176 235.082742173 278.007068176 235.082742173 284.880362045 236.682755807 c 128,-1,61
 291.753655914 238.282769441 291.753655914 238.282769441 296.731445312 239.431640625 c 0,62,63
 334.078673473 248.052007304 334.078673473 248.052007304 334.559570312 247.569335938 c 128,-1,64
 335.116899759 247.012738856 335.116899759 247.012738856 339.659782168 226.408482966 c 128,-1,65
 344.202664577 205.804227077 344.202664577 205.804227077 343.846679688 205.448242188 c 128,-1,66
 343.428755757 205.030318257 343.428755757 205.030318257 312.72265625 197.961914062 c 0,67,68
 195.686291575 171.020507812 195.686291575 171.020507812 193.916992188 171.020507812 c 0,69,43
 192.622514205 171.020507812 192.622514205 171.020507812 177.7734375 192.641601562 c 128,-1,44
118.077148438 297.04296875 m 0,70,71
 96.1726035084 302.903809641 96.1726035084 302.903809641 90.1094970703 325.225341797 c 128,-1,72
 84.0463906322 347.546873953 84.0463906322 347.546873953 99.9296875 363.853515625 c 0,73,74
 114.404536034 378.714365543 114.404536034 378.714365543 134.802978516 375.504272461 c 128,-1,75
 155.201420998 372.294179379 155.201420998 372.294179379 164.392578125 353.708984375 c 0,76,77
 175.911353723 330.418015721 175.911353723 330.418015721 159.530409175 310.376359495 c 128,-1,78
 143.149464626 290.334703268 143.149464626 290.334703268 118.077148438 297.04296875 c 0,70,71
EndSplineSet
EndChar

StartChar: hyphen
Encoding: 45 45 82
Width: 512
Flags: W
LayerCount: 2
Fore
SplineSet
170.666992188 67.2001953125 m 0,0,1
 170.666992188 80.7587890625 170.666992188 80.7587890625 160.000244141 101.291992188 c 128,-1,2
 149.333496094 121.825195312 149.333496094 121.825195312 138.666748047 135.579101562 c 2,3,-1
 128 149.333007812 l 1,4,5
 85.3330078125 97.6472139246 85.3330078125 97.6472139246 85.3330078125 67.2001953125 c 0,6,7
 85.3330078125 48.1482116813 85.3330078125 48.1482116813 97.7921709053 34.7406097469 c 128,-1,8
 110.251333998 21.3330078125 110.251333998 21.3330078125 128 21.3330078125 c 128,-1,9
 145.748666002 21.3330078125 145.748666002 21.3330078125 158.207829095 34.7406097469 c 128,-1,10
 170.666992188 48.1482116813 170.666992188 48.1482116813 170.666992188 67.2001953125 c 0,0,1
351.146484375 192 m 1,11,-1
 351.146484375 222.719726562 l 1,12,-1
 393.813476562 246.827148438 l 1,13,-1
 443.51953125 233.599609375 l 1,14,-1
 454.61328125 274.7734375 l 1,15,-1
 416.853515625 284.799804688 l 1,16,-1
 426.666992188 322.559570312 l 1,17,-1
 385.493164062 333.653320312 l 1,18,-1
 372.266601562 283.946289062 l 1,19,-1
 329.599609375 259.83984375 l 1,20,-1
 277.333007812 290.559570312 l 1,21,-1
 277.333007812 338.7734375 l 1,22,-1
 313.813476562 375.252929688 l 1,23,-1
 283.51953125 405.333007812 l 1,24,-1
 256 377.813476562 l 1,25,-1
 228.48046875 405.333007812 l 1,26,-1
 198.186523438 375.252929688 l 1,27,-1
 234.666992188 338.7734375 l 1,28,-1
 234.666992188 290.559570312 l 1,29,-1
 181.333007812 259.83984375 l 1,30,-1
 138.666992188 283.946289062 l 1,31,-1
 126.29296875 333.653320312 l 1,32,-1
 85.3330078125 322.559570312 l 1,33,-1
 95.3603515625 284.799804688 l 1,34,-1
 57.599609375 274.7734375 l 1,35,-1
 68.693359375 233.599609375 l 1,36,-1
 118.400390625 246.827148438 l 1,37,-1
 161.06640625 222.719726562 l 1,38,-1
 161.06640625 192 l 1,39,-1
 42.6669921875 192 l 1,40,-1
 42.6669921875 170.666992188 l 1,41,-1
 469.333007812 170.666992188 l 1,42,-1
 469.333007812 192 l 1,43,-1
 351.146484375 192 l 1,11,-1
202.666992188 192 m 1,44,-1
 202.666992188 222.719726562 l 1,45,-1
 256 253.653320312 l 1,46,-1
 309.333007812 222.719726562 l 1,47,-1
 309.333007812 192 l 1,48,-1
 202.666992188 192 l 1,44,-1
426.666992188 67.2001953125 m 0,49,50
 426.666992188 80.7587890625 426.666992188 80.7587890625 416.000244141 101.291992188 c 128,-1,51
 405.333496094 121.825195312 405.333496094 121.825195312 394.666748047 135.579101562 c 2,52,-1
 384 149.333007812 l 1,53,54
 341.333007812 97.6472139246 341.333007812 97.6472139246 341.333007812 67.2001953125 c 0,55,56
 341.333007812 48.1482116813 341.333007812 48.1482116813 353.792170905 34.7406097469 c 128,-1,57
 366.251333998 21.3330078125 366.251333998 21.3330078125 384 21.3330078125 c 128,-1,58
 401.748666002 21.3330078125 401.748666002 21.3330078125 414.207829095 34.7406097469 c 128,-1,59
 426.666992188 48.1482116813 426.666992188 48.1482116813 426.666992188 67.2001953125 c 0,49,50
298.666992188 3.2001953125 m 0,60,61
 299 -16 299 -16 286.207829095 -29.2593902531 c 0,62,63
 274 -43 274 -43 256 -42.6669921875 c 0,64,65
 238 -43 238 -43 225.792170905 -29.2593902531 c 0,66,67
 213 -16 213 -16 213.333007812 3.2001953125 c 0,68,69
 213 34 213 34 256 85.3330078125 c 1,70,71
 256 85.3330078125 256 85.3330078125 266.666748047 71.5791015625 c 2,72,73
 278 57 278 57 287.666748047 38.1918945312 c 0,74,75
 299 18 299 18 298.666992188 3.2001953125 c 0,60,61
EndSplineSet
EndChar

StartChar: comma
Encoding: 44 44 83
Width: 512
Flags: W
LayerCount: 2
Fore
SplineSet
213 444 m 256,0,1
 197 444 197 444 186 432.5 c 128,-1,2
 175 421 175 421 175 405 c 128,-1,3
 175 389 175 389 186 378 c 128,-1,4
 197 367 197 367 213 367 c 128,-1,5
 229 367 229 367 240.5 378 c 128,-1,6
 252 389 252 389 252 405 c 128,-1,7
 252 421 252 421 240.5 432.5 c 128,-1,8
 229 444 229 444 213 444 c 256,0,1
334 427 m 1,9,10
 334 384 334 384 355 348 c 128,-1,11
 376 312 376 312 412 291 c 128,-1,12
 448 270 448 270 491 270 c 1,13,-1
 491 299 l 1,14,15
 456 299 456 299 426.5 316 c 128,-1,16
 397 333 397 333 380 362.5 c 128,-1,17
 363 392 363 392 363 427 c 1,18,-1
 334 427 l 1,9,10
391 427 m 1,19,20
 391 400 391 400 404.5 377 c 128,-1,21
 418 354 418 354 441 340.5 c 128,-1,22
 464 327 464 327 491 327 c 1,23,-1
 491 356 l 1,24,25
 461 356 461 356 440.5 376.5 c 128,-1,26
 420 397 420 397 420 427 c 1,27,-1
 391 427 l 1,19,20
448 427 m 1,28,29
 448 409 448 409 460.5 396.5 c 128,-1,30
 473 384 473 384 491 384 c 1,31,-1
 491 427 l 1,32,-1
 448 427 l 1,28,29
169 362 m 0,33,34
 164 362 164 362 158 360 c 2,35,-1
 43 324 l 1,36,-1
 43 213 l 1,37,-1
 81 213 l 1,38,-1
 81 292 l 1,39,-1
 126 306 l 1,40,-1
 43 -21 l 1,41,-1
 81 -21 l 1,42,-1
 142 152 l 1,43,-1
 192 85 l 1,44,-1
 192 -21 l 1,45,-1
 230 -21 l 1,46,-1
 230 115 l 1,47,-1
 177 212 l 1,48,-1
 193 273 l 1,49,-1
 216 235 l 1,50,-1
 320 235 l 1,51,-1
 320 273 l 1,52,-1
 243 273 l 1,53,-1
 200 344 l 2,54,55
 195 352 195 352 187 357 c 128,-1,56
 179 362 179 362 169 362 c 0,33,34
EndSplineSet
EndChar

StartChar: period
Encoding: 46 46 84
Width: 512
Flags: W
LayerCount: 2
Fore
SplineSet
277 213 m 1,0,-1
 384 213 l 1,1,-1
 352 245 l 1,2,-1
 382 276 l 1,3,-1
 466 192 l 1,4,-1
 382 108 l 1,5,-1
 352 139 l 1,6,-1
 384 171 l 1,7,-1
 277 171 l 1,8,-1
 277 64 l 1,9,-1
 309 96 l 1,10,-1
 340 66 l 1,11,-1
 256 -18 l 1,12,-1
 172 66 l 1,13,-1
 203 96 l 1,14,-1
 235 64 l 1,15,-1
 235 171 l 1,16,-1
 128 171 l 1,17,-1
 160 139 l 1,18,-1
 130 108 l 1,19,-1
 46 192 l 1,20,-1
 130 276 l 1,21,-1
 160 245 l 1,22,-1
 128 213 l 1,23,-1
 235 213 l 1,24,-1
 235 320 l 1,25,-1
 203 288 l 1,26,-1
 172 318 l 1,27,-1
 256 402 l 1,28,-1
 340 318 l 1,29,-1
 309 288 l 1,30,-1
 277 320 l 1,31,-1
 277 213 l 1,0,-1
EndSplineSet
EndChar

StartChar: slash
Encoding: 47 47 87
Width: 512
Flags: W
LayerCount: 2
Fore
SplineSet
138 76 m 1,0,-1
 21 192 l 1,1,-1
 138 308 l 1,2,-1
 168 278 l 1,3,-1
 103 213 l 1,4,-1
 409 213 l 1,5,-1
 344 278 l 1,6,-1
 374 308 l 1,7,-1
 491 192 l 1,8,-1
 374 76 l 1,9,-1
 344 106 l 1,10,-1
 409 171 l 1,11,-1
 103 171 l 1,12,-1
 168 106 l 1,13,-1
 138 76 l 1,0,-1
EndSplineSet
EndChar

StartChar: zero
Encoding: 48 48 88
Width: 512
Flags: W
LayerCount: 2
Fore
SplineSet
372 74 m 1,0,-1
 256 -43 l 1,1,-1
 140 74 l 1,2,-1
 170 104 l 1,3,-1
 235 39 l 1,4,-1
 235 345 l 1,5,-1
 170 280 l 1,6,-1
 140 310 l 1,7,-1
 256 427 l 1,8,-1
 372 310 l 1,9,-1
 342 280 l 1,10,-1
 277 345 l 1,11,-1
 277 39 l 1,12,-1
 342 104 l 1,13,-1
 372 74 l 1,0,-1
EndSplineSet
EndChar

StartChar: one
Encoding: 49 49 89
Width: 512
Flags: W
LayerCount: 2
Fore
SplineSet
267 405 m 0,0,1
 222 405 222 405 204 370 c 0,2,3
 186 337 186 337 198 289 c 1,4,-1
 320 167 l 1,5,6
 356 159 356 159 369 134 c 0,7,8
 378 115 378 115 395 106.5 c 128,-1,9
 412 98 412 98 429.5 103 c 128,-1,10
 447 108 447 108 458 126 c 0,11,12
 470 147 470 147 470 181 c 0,13,14
 470 218 470 218 446 237 c 128,-1,15
 422 256 422 256 383.5 254.5 c 128,-1,16
 345 253 345 253 306 232 c 1,17,18
 296 245 296 245 280 251 c 1,19,20
 288 291 288 291 315 304 c 0,21,22
 333 313 333 313 341.5 330 c 128,-1,23
 350 347 350 347 345 364.5 c 128,-1,24
 340 382 340 382 322 393 c 0,25,26
 301 405 301 405 267 405 c 0,0,1
70 363 m 1,27,-1
 43 336 l 1,28,-1
 95 283 l 1,29,30
 73 283 73 283 59 264 c 0,31,32
 43 242 43 242 43 203 c 0,33,34
 43 166 43 166 67 147 c 128,-1,35
 91 128 91 128 129 129.5 c 128,-1,36
 167 131 167 131 206 152 c 1,37,38
 216 139 216 139 232 132 c 1,39,40
 224 93 224 93 198 80 c 0,41,42
 179 71 179 71 170.5 54 c 128,-1,43
 162 37 162 37 167 19.5 c 128,-1,44
 172 2 172 2 190 -9 c 0,45,46
 211 -21 211 -21 246 -21 c 128,-1,47
 281 -21 281 -21 300 1.5 c 128,-1,48
 319 24 319 24 319 60 c 1,49,-1
 400 -21 l 1,50,-1
 427 6 l 1,51,-1
 70 363 l 1,27,-1
EndSplineSet
EndChar

StartChar: two
Encoding: 50 50 90
Width: 512
Flags: W
LayerCount: 2
Fore
SplineSet
267 405 m 0,0,1
 230 405 230 405 211 381 c 128,-1,2
 192 357 192 357 193.5 319 c 128,-1,3
 195 281 195 281 216 242 c 1,4,5
 203 232 203 232 196 216 c 1,6,7
 157 224 157 224 144 250 c 0,8,9
 134 269 134 269 117.5 277.5 c 128,-1,10
 101 286 101 286 83.5 281 c 128,-1,11
 66 276 66 276 55 258 c 0,12,13
 43 237 43 237 43 203 c 0,14,15
 43 166 43 166 67 147 c 128,-1,16
 91 128 91 128 128.5 129.5 c 128,-1,17
 166 131 166 131 206 152 c 1,18,19
 216 139 216 139 232 132 c 1,20,21
 224 93 224 93 198 80 c 0,22,23
 179 71 179 71 170.5 54 c 128,-1,24
 162 37 162 37 167 19.5 c 128,-1,25
 172 2 172 2 190 -9 c 0,26,27
 211 -21 211 -21 245 -21 c 0,28,29
 271 -21 271 -21 288 -9 c 1,30,31
 277 17 277 17 277 43 c 0,32,33
 277 87 277 87 305 122 c 1,34,35
 300 135 300 135 296 142 c 1,36,37
 309 153 309 153 315 168 c 1,38,39
 333 165 333 165 347 156 c 1,40,41
 375 171 375 171 406.5 171 c 128,-1,42
 438 171 438 171 467 155 c 1,43,44
 469 169 469 169 469 181 c 0,45,46
 469 218 469 218 445 237 c 128,-1,47
 421 256 421 256 383 254.5 c 128,-1,48
 345 253 345 253 306 232 c 1,49,50
 295 245 295 245 280 251 c 1,51,52
 288 291 288 291 314 304 c 0,53,54
 333 313 333 313 341.5 330 c 128,-1,55
 350 347 350 347 345 364.5 c 128,-1,56
 340 382 340 382 322 393 c 0,57,58
 301 405 301 405 267 405 c 0,0,1
256 213 m 256,59,60
 265 213 265 213 271 207 c 128,-1,61
 277 201 277 201 277 192 c 128,-1,62
 277 183 277 183 271 177 c 128,-1,63
 265 171 265 171 256 171 c 128,-1,64
 247 171 247 171 241 177 c 128,-1,65
 235 183 235 183 235 192 c 128,-1,66
 235 201 235 201 241 207 c 128,-1,67
 247 213 247 213 256 213 c 256,59,60
384 128 m 2,68,69
 366 128 366 128 353.5 115.5 c 128,-1,70
 341 103 341 103 341 85 c 2,71,-1
 341 -43 l 1,72,-1
 384 -43 l 1,73,-1
 384 0 l 1,74,-1
 427 0 l 1,75,-1
 427 -43 l 1,76,-1
 469 -43 l 1,77,-1
 469 85 l 2,78,79
 469 103 469 103 456.5 115.5 c 128,-1,80
 444 128 444 128 427 128 c 2,81,-1
 384 128 l 2,68,69
384 85 m 1,82,-1
 427 85 l 1,83,-1
 427 43 l 1,84,-1
 384 43 l 1,85,-1
 384 85 l 1,82,-1
EndSplineSet
EndChar

StartChar: three
Encoding: 51 51 91
Width: 512
Flags: W
LayerCount: 2
Fore
SplineSet
256 213 m 256,0,1
 247 213 247 213 241 207 c 128,-1,2
 235 201 235 201 235 192 c 128,-1,3
 235 183 235 183 241 177 c 128,-1,4
 247 171 247 171 256 171 c 128,-1,5
 265 171 265 171 271 177 c 128,-1,6
 277 183 277 183 277 192 c 128,-1,7
 277 201 277 201 271 207 c 128,-1,8
 265 213 265 213 256 213 c 256,0,1
267 405 m 0,9,10
 301 405 301 405 322 393 c 0,11,12
 340 382 340 382 345 364.5 c 128,-1,13
 350 347 350 347 341.5 330 c 128,-1,14
 333 313 333 313 315 304 c 0,15,16
 288 291 288 291 280 251 c 1,17,18
 296 245 296 245 306 232 c 1,19,20
 345 253 345 253 383.5 254.5 c 128,-1,21
 422 256 422 256 446 237 c 128,-1,22
 470 218 470 218 470 181 c 0,23,24
 470 147 470 147 458 126 c 0,25,26
 447 108 447 108 429.5 103 c 128,-1,27
 412 98 412 98 395 106.5 c 128,-1,28
 378 115 378 115 369 134 c 0,29,30
 355 160 355 160 316 168 c 1,31,32
 309 153 309 153 296 142 c 1,33,34
 317 103 317 103 318.5 65 c 128,-1,35
 320 27 320 27 301 3 c 128,-1,36
 282 -21 282 -21 245 -21 c 0,37,38
 211 -21 211 -21 190 -9 c 0,39,40
 172 2 172 2 167 19.5 c 128,-1,41
 162 37 162 37 170.5 54 c 128,-1,42
 179 71 179 71 198 80 c 0,43,44
 224 93 224 93 232 132 c 1,45,46
 216 139 216 139 206 152 c 1,47,48
 167 131 167 131 129 129.5 c 128,-1,49
 91 128 91 128 67 147 c 128,-1,50
 43 166 43 166 43 203 c 0,51,52
 43 237 43 237 55 258 c 0,53,54
 66 276 66 276 83.5 281 c 128,-1,55
 101 286 101 286 117.5 277.5 c 128,-1,56
 134 269 134 269 144 250 c 0,57,58
 157 224 157 224 197 216 c 1,59,60
 203 232 203 232 216 242 c 1,61,62
 195 281 195 281 193.5 319 c 128,-1,63
 192 357 192 357 211 381 c 128,-1,64
 230 405 230 405 267 405 c 0,9,10
EndSplineSet
EndChar

StartChar: four
Encoding: 52 52 92
Width: 512
Flags: W
LayerCount: 2
Fore
SplineSet
277 43 m 0,0,1
 277 87 277 87 305 122 c 1,2,3
 300 135 300 135 296 142 c 1,4,5
 309 153 309 153 315 168 c 1,6,7
 333 165 333 165 347 156 c 1,8,9
 375 171 375 171 406.5 171 c 128,-1,10
 438 171 438 171 467 155 c 1,11,12
 469 169 469 169 469 181 c 0,13,14
 469 218 469 218 445 237 c 128,-1,15
 421 256 421 256 383 254.5 c 128,-1,16
 345 253 345 253 306 232 c 1,17,18
 295 245 295 245 280 251 c 1,19,20
 288 291 288 291 314 304 c 0,21,22
 333 313 333 313 341.5 330 c 128,-1,23
 350 347 350 347 345 364.5 c 128,-1,24
 340 382 340 382 322 393 c 0,25,26
 301 405 301 405 267 405 c 0,27,28
 230 405 230 405 211 381 c 128,-1,29
 192 357 192 357 193.5 319 c 128,-1,30
 195 281 195 281 216 242 c 1,31,32
 203 232 203 232 196 216 c 1,33,34
 157 224 157 224 144 250 c 0,35,36
 134 269 134 269 117.5 277.5 c 128,-1,37
 101 286 101 286 83.5 281 c 128,-1,38
 66 276 66 276 55 258 c 0,39,40
 43 237 43 237 43 203 c 0,41,42
 43 166 43 166 67 147 c 128,-1,43
 91 128 91 128 128.5 129.5 c 128,-1,44
 166 131 166 131 206 152 c 1,45,46
 216 139 216 139 232 132 c 1,47,48
 224 93 224 93 198 80 c 0,49,50
 179 71 179 71 170.5 54 c 128,-1,51
 162 37 162 37 167 19.5 c 128,-1,52
 172 2 172 2 190 -9 c 0,53,54
 211 -21 211 -21 245 -21 c 0,55,56
 271 -21 271 -21 288 -9 c 1,57,58
 277 17 277 17 277 43 c 0,0,1
256 171 m 256,59,60
 247 171 247 171 241 177 c 128,-1,61
 235 183 235 183 235 192 c 128,-1,62
 235 201 235 201 241 207 c 128,-1,63
 247 213 247 213 256 213 c 128,-1,64
 265 213 265 213 271 207 c 128,-1,65
 277 201 277 201 277 192 c 128,-1,66
 277 183 277 183 271 177 c 128,-1,67
 265 171 265 171 256 171 c 256,59,60
363 128 m 1,68,-1
 363 85 l 1,69,-1
 384 85 l 1,70,-1
 384 -43 l 1,71,-1
 427 -43 l 1,72,-1
 427 128 l 1,73,-1
 363 128 l 1,68,-1
EndSplineSet
EndChar

StartChar: five
Encoding: 53 53 93
Width: 512
Flags: W
LayerCount: 2
Fore
SplineSet
277 43 m 0,0,1
 277 87 277 87 305 122 c 1,2,3
 300 135 300 135 296 142 c 1,4,5
 309 153 309 153 315 168 c 1,6,7
 333 165 333 165 347 156 c 1,8,9
 375 171 375 171 406.5 171 c 128,-1,10
 438 171 438 171 467 155 c 1,11,12
 469 169 469 169 469 181 c 0,13,14
 469 218 469 218 445 237 c 128,-1,15
 421 256 421 256 383 254.5 c 128,-1,16
 345 253 345 253 306 232 c 1,17,18
 295 245 295 245 280 251 c 1,19,20
 288 291 288 291 314 304 c 0,21,22
 333 313 333 313 341.5 330 c 128,-1,23
 350 347 350 347 345 364.5 c 128,-1,24
 340 382 340 382 322 393 c 0,25,26
 301 405 301 405 267 405 c 0,27,28
 230 405 230 405 211 381 c 128,-1,29
 192 357 192 357 193.5 319 c 128,-1,30
 195 281 195 281 216 242 c 1,31,32
 203 232 203 232 196 216 c 1,33,34
 157 224 157 224 144 250 c 0,35,36
 134 269 134 269 117.5 277.5 c 128,-1,37
 101 286 101 286 83.5 281 c 128,-1,38
 66 276 66 276 55 258 c 0,39,40
 43 237 43 237 43 203 c 0,41,42
 43 166 43 166 67 147 c 128,-1,43
 91 128 91 128 128.5 129.5 c 128,-1,44
 166 131 166 131 206 152 c 1,45,46
 216 139 216 139 232 132 c 1,47,48
 224 93 224 93 198 80 c 0,49,50
 179 71 179 71 170.5 54 c 128,-1,51
 162 37 162 37 167 19.5 c 128,-1,52
 172 2 172 2 190 -9 c 0,53,54
 211 -21 211 -21 245 -21 c 0,55,56
 271 -21 271 -21 288 -9 c 1,57,58
 277 17 277 17 277 43 c 0,0,1
256 171 m 256,59,60
 247 171 247 171 241 177 c 128,-1,61
 235 183 235 183 235 192 c 128,-1,62
 235 201 235 201 241 207 c 128,-1,63
 247 213 247 213 256 213 c 128,-1,64
 265 213 265 213 271 207 c 128,-1,65
 277 201 277 201 277 192 c 128,-1,66
 277 183 277 183 271 177 c 128,-1,67
 265 171 265 171 256 171 c 256,59,60
341 128 m 1,68,-1
 341 85 l 1,69,-1
 405 85 l 1,70,-1
 405 64 l 1,71,-1
 384 64 l 2,72,73
 366 64 366 64 353.5 51.5 c 128,-1,74
 341 39 341 39 341 21 c 2,75,-1
 341 -43 l 1,76,-1
 448 -43 l 1,77,-1
 448 0 l 1,78,-1
 384 0 l 1,79,-1
 384 21 l 1,80,-1
 405 21 l 2,81,82
 423 21 423 21 435.5 33.5 c 128,-1,83
 448 46 448 46 448 64 c 2,84,-1
 448 85 l 2,85,86
 448 103 448 103 435.5 115.5 c 128,-1,87
 423 128 423 128 405 128 c 2,88,-1
 341 128 l 1,68,-1
EndSplineSet
EndChar

StartChar: six
Encoding: 54 54 94
Width: 512
Flags: W
LayerCount: 2
Fore
SplineSet
277 43 m 0,0,1
 277 87 277 87 305 122 c 1,2,3
 300 135 300 135 296 142 c 1,4,5
 309 153 309 153 315 168 c 1,6,7
 333 165 333 165 347 156 c 1,8,9
 375 171 375 171 406.5 171 c 128,-1,10
 438 171 438 171 467 155 c 1,11,12
 469 169 469 169 469 181 c 0,13,14
 469 218 469 218 445 237 c 128,-1,15
 421 256 421 256 383 254.5 c 128,-1,16
 345 253 345 253 306 232 c 1,17,18
 295 245 295 245 280 251 c 1,19,20
 288 291 288 291 314 304 c 0,21,22
 333 313 333 313 341.5 330 c 128,-1,23
 350 347 350 347 345 364.5 c 128,-1,24
 340 382 340 382 322 393 c 0,25,26
 301 405 301 405 267 405 c 0,27,28
 230 405 230 405 211 381 c 128,-1,29
 192 357 192 357 193.5 319 c 128,-1,30
 195 281 195 281 216 242 c 1,31,32
 203 232 203 232 196 216 c 1,33,34
 157 224 157 224 144 250 c 0,35,36
 134 269 134 269 117.5 277.5 c 128,-1,37
 101 286 101 286 83.5 281 c 128,-1,38
 66 276 66 276 55 258 c 0,39,40
 43 237 43 237 43 203 c 0,41,42
 43 166 43 166 67 147 c 128,-1,43
 91 128 91 128 128.5 129.5 c 128,-1,44
 166 131 166 131 206 152 c 1,45,46
 216 139 216 139 232 132 c 1,47,48
 224 93 224 93 198 80 c 0,49,50
 179 71 179 71 170.5 54 c 128,-1,51
 162 37 162 37 167 19.5 c 128,-1,52
 172 2 172 2 190 -9 c 0,53,54
 211 -21 211 -21 245 -21 c 0,55,56
 271 -21 271 -21 288 -9 c 1,57,58
 277 17 277 17 277 43 c 0,0,1
256 171 m 256,59,60
 247 171 247 171 241 177 c 128,-1,61
 235 183 235 183 235 192 c 128,-1,62
 235 201 235 201 241 207 c 128,-1,63
 247 213 247 213 256 213 c 128,-1,64
 265 213 265 213 271 207 c 128,-1,65
 277 201 277 201 277 192 c 128,-1,66
 277 183 277 183 271 177 c 128,-1,67
 265 171 265 171 256 171 c 256,59,60
448 0 m 2,68,-1
 448 11 l 2,69,70
 448 24 448 24 438.5 33.5 c 128,-1,71
 429 43 429 43 416 43 c 1,72,73
 429 43 429 43 438.5 52 c 128,-1,74
 448 61 448 61 448 75 c 2,75,-1
 448 85 l 2,76,77
 448 103 448 103 435.5 115.5 c 128,-1,78
 423 128 423 128 405 128 c 2,79,-1
 341 128 l 1,80,-1
 341 85 l 1,81,-1
 405 85 l 1,82,-1
 405 64 l 1,83,-1
 363 64 l 1,84,-1
 363 21 l 1,85,-1
 405 21 l 1,86,-1
 405 0 l 1,87,-1
 341 0 l 1,88,-1
 341 -43 l 1,89,-1
 405 -43 l 2,90,91
 423 -43 423 -43 435.5 -30.5 c 128,-1,92
 448 -18 448 -18 448 0 c 2,68,-1
EndSplineSet
EndChar
